{
    "asset" : {
        "copyright" : "TheFamousRat",
        "generator" : "Khronos glTF Blender I/O v1.1.46",
        "version" : "2.0"
    },
    "scene" : 0,
    "scenes" : [
        {
            "name" : "Scene",
            "nodes" : [
                5
            ]
        }
    ],
    "nodes" : [
        {
            "mesh" : 0,
            "name" : "BlueSticker.010",
            "rotation" : [
                0.6957665085792542,
                -0.12613104283809662,
                0.1261310577392578,
                0.6957664489746094
            ],
            "scale" : [
                1.1818968057632446,
                1.1818968057632446,
                1.1818968057632446
            ],
            "translation" : [
                0.20929670333862305,
                0.5725164413452148,
                0.15785765647888184
            ]
        },
        {
            "mesh" : 1,
            "name" : "codeBArre.010",
            "rotation" : [
                0.5,
                0.5,
                -0.5000000596046448,
                0.4999999701976776
            ],
            "scale" : [
                0.07861451804637909,
                0.07861451804637909,
                0.07861451804637909
            ],
            "translation" : [
                0.47351622581481934,
                -0.24511703848838806,
                -0.09052276611328125
            ]
        },
        {
            "mesh" : 2,
            "name" : "sign2.010",
            "rotation" : [
                0.7067359089851379,
                -0.0229000523686409,
                -0.0229000523686409,
                0.7067359089851379
            ],
            "scale" : [
                0.1488390564918518,
                0.1488390564918518,
                0.1488390564918518
            ],
            "translation" : [
                -0.3207188844680786,
                -0.0457819402217865,
                0.5294590592384338
            ]
        },
        {
            "mesh" : 3,
            "name" : "sign3.002",
            "rotation" : [
                0.7067359089851379,
                -0.0229000523686409,
                -0.0229000523686409,
                0.7067359089851379
            ],
            "scale" : [
                0.1488390564918518,
                0.1488390564918518,
                0.1488390564918518
            ],
            "translation" : [
                -0.15733933448791504,
                -0.05638088285923004,
                0.5294590592384338
            ]
        },
        {
            "mesh" : 4,
            "name" : "sign4.009",
            "rotation" : [
                0.7067359089851379,
                -0.0229000523686409,
                -0.0229000523686409,
                0.7067359089851379
            ],
            "scale" : [
                0.1488390564918518,
                0.1488390564918518,
                0.1488390564918518
            ],
            "translation" : [
                0.006040453910827637,
                -0.06697985529899597,
                0.5294590592384338
            ]
        },
        {
            "children" : [
                0,
                1,
                2,
                3,
                4
            ],
            "mesh" : 5,
            "name" : "Cardboard.019"
        }
    ],
    "materials" : [
        {
            "doubleSided" : true,
            "emissiveFactor" : [
                0,
                0,
                0
            ],
            "name" : "BlueSticker",
            "pbrMetallicRoughness" : {
                "baseColorTexture" : {
                    "index" : 0,
                    "texCoord" : 0
                },
                "metallicFactor" : 0,
                "roughnessFactor" : 0.5
            }
        },
        {
            "alphaMode" : "BLEND",
            "doubleSided" : true,
            "emissiveFactor" : [
                0,
                0,
                0
            ],
            "name" : "codeBArre",
            "pbrMetallicRoughness" : {
                "baseColorTexture" : {
                    "index" : 1,
                    "texCoord" : 0
                },
                "metallicFactor" : 0,
                "roughnessFactor" : 0.5
            }
        },
        {
            "alphaMode" : "BLEND",
            "doubleSided" : true,
            "emissiveFactor" : [
                0,
                0,
                0
            ],
            "name" : "sign2",
            "pbrMetallicRoughness" : {
                "baseColorTexture" : {
                    "index" : 2,
                    "texCoord" : 0
                },
                "metallicFactor" : 0,
                "roughnessFactor" : 0.5
            }
        },
        {
            "alphaMode" : "BLEND",
            "doubleSided" : true,
            "emissiveFactor" : [
                0,
                0,
                0
            ],
            "name" : "sign3",
            "pbrMetallicRoughness" : {
                "baseColorTexture" : {
                    "index" : 3,
                    "texCoord" : 0
                },
                "metallicFactor" : 0
            }
        },
        {
            "alphaMode" : "BLEND",
            "doubleSided" : true,
            "emissiveFactor" : [
                0,
                0,
                0
            ],
            "name" : "sign4",
            "pbrMetallicRoughness" : {
                "baseColorTexture" : {
                    "index" : 4,
                    "texCoord" : 0
                },
                "metallicFactor" : 0
            }
        },
        {
            "doubleSided" : true,
            "emissiveFactor" : [
                0,
                0,
                0
            ],
            "name" : "Cardboard",
            "pbrMetallicRoughness" : {
                "baseColorFactor" : [
                    0.43854397535324097,
                    0.22114567458629608,
                    0.07486508041620255,
                    1
                ],
                "metallicFactor" : 0,
                "roughnessFactor" : 0.800000011920929
            }
        },
        {
            "doubleSided" : true,
            "emissiveFactor" : [
                0,
                0,
                0
            ],
            "name" : "CardboardTape",
            "pbrMetallicRoughness" : {
                "baseColorFactor" : [
                    0.8000000715255737,
                    0.7577246427536011,
                    0.3579860031604767,
                    1
                ],
                "metallicFactor" : 0,
                "roughnessFactor" : 0.30000001192092896
            }
        }
    ],
    "meshes" : [
        {
            "name" : "Plane.016",
            "primitives" : [
                {
                    "attributes" : {
                        "POSITION" : 0,
                        "NORMAL" : 1,
                        "TEXCOORD_0" : 2
                    },
                    "indices" : 3,
                    "material" : 0
                }
            ]
        },
        {
            "name" : "codeBArre.006",
            "primitives" : [
                {
                    "attributes" : {
                        "POSITION" : 4,
                        "NORMAL" : 5,
                        "TEXCOORD_0" : 6
                    },
                    "indices" : 7,
                    "material" : 1
                }
            ]
        },
        {
            "name" : "sign2.004",
            "primitives" : [
                {
                    "attributes" : {
                        "POSITION" : 8,
                        "NORMAL" : 9,
                        "TEXCOORD_0" : 10
                    },
                    "indices" : 7,
                    "material" : 2
                }
            ]
        },
        {
            "name" : "sign3.002",
            "primitives" : [
                {
                    "attributes" : {
                        "POSITION" : 11,
                        "NORMAL" : 12,
                        "TEXCOORD_0" : 13
                    },
                    "indices" : 7,
                    "material" : 3
                }
            ]
        },
        {
            "name" : "sign4.002",
            "primitives" : [
                {
                    "attributes" : {
                        "POSITION" : 14,
                        "NORMAL" : 15,
                        "TEXCOORD_0" : 16
                    },
                    "indices" : 7,
                    "material" : 4
                }
            ]
        },
        {
            "name" : "Cube.001",
            "primitives" : [
                {
                    "attributes" : {
                        "POSITION" : 17,
                        "NORMAL" : 18,
                        "TEXCOORD_0" : 19,
                        "JOINTS_0" : 20,
                        "WEIGHTS_0" : 21
                    },
                    "indices" : 22,
                    "material" : 5
                },
                {
                    "attributes" : {
                        "POSITION" : 23,
                        "NORMAL" : 24,
                        "TEXCOORD_0" : 25,
                        "JOINTS_0" : 26,
                        "WEIGHTS_0" : 27
                    },
                    "indices" : 28,
                    "material" : 6
                }
            ]
        }
    ],
    "textures" : [
        {
            "source" : 0
        },
        {
            "source" : 1
        },
        {
            "source" : 2
        },
        {
            "source" : 3
        },
        {
            "source" : 4
        }
    ],
    "images" : [
        {
            "bufferView" : 4,
            "mimeType" : "image/png",
            "name" : "BlueStickerDiffuse"
        },
        {
            "bufferView" : 9,
            "mimeType" : "image/png",
            "name" : "barcode"
        },
        {
            "bufferView" : 13,
            "mimeType" : "image/png",
            "name" : "sign2"
        },
        {
            "bufferView" : 17,
            "mimeType" : "image/png",
            "name" : "sign3"
        },
        {
            "bufferView" : 21,
            "mimeType" : "image/png",
            "name" : "sign4"
        }
    ],
    "accessors" : [
        {
            "bufferView" : 0,
            "componentType" : 5126,
            "count" : 40,
            "max" : [
                0.11936478316783905,
                0.07702059298753738,
                0.09904220700263977
            ],
            "min" : [
                -0.12062768638134003,
                -0.07654722779989243,
                0.09712657332420349
            ],
            "type" : "VEC3"
        },
        {
            "bufferView" : 1,
            "componentType" : 5126,
            "count" : 40,
            "type" : "VEC3"
        },
        {
            "bufferView" : 2,
            "componentType" : 5126,
            "count" : 40,
            "type" : "VEC2"
        },
        {
            "bufferView" : 3,
            "componentType" : 5123,
            "count" : 60,
            "type" : "SCALAR"
        },
        {
            "bufferView" : 5,
            "componentType" : 5126,
            "count" : 4,
            "max" : [
                1.1111112833023071,
                -0.28586864471435547,
                0.4994993209838867
            ],
            "min" : [
                -1.1111111640930176,
                -0.2876105308532715,
                -0.5004978179931641
            ],
            "type" : "VEC3"
        },
        {
            "bufferView" : 6,
            "componentType" : 5126,
            "count" : 4,
            "type" : "VEC3"
        },
        {
            "bufferView" : 7,
            "componentType" : 5126,
            "count" : 4,
            "type" : "VEC2"
        },
        {
            "bufferView" : 8,
            "componentType" : 5123,
            "count" : 6,
            "type" : "SCALAR"
        },
        {
            "bufferView" : 10,
            "componentType" : 5126,
            "count" : 4,
            "max" : [
                0.49994099140167236,
                -0.5221095085144043,
                0.49908798933029175
            ],
            "min" : [
                -0.5002996921539307,
                -0.5259122848510742,
                -0.5046260952949524
            ],
            "type" : "VEC3"
        },
        {
            "bufferView" : 11,
            "componentType" : 5126,
            "count" : 4,
            "type" : "VEC3"
        },
        {
            "bufferView" : 12,
            "componentType" : 5126,
            "count" : 4,
            "type" : "VEC2"
        },
        {
            "bufferView" : 14,
            "componentType" : 5126,
            "count" : 4,
            "max" : [
                0.4999406933784485,
                -0.5227413177490234,
                0.4990878105163574
            ],
            "min" : [
                -0.5003000497817993,
                -0.526036262512207,
                -0.504631757736206
            ],
            "type" : "VEC3"
        },
        {
            "bufferView" : 15,
            "componentType" : 5126,
            "count" : 4,
            "type" : "VEC3"
        },
        {
            "bufferView" : 16,
            "componentType" : 5126,
            "count" : 4,
            "type" : "VEC2"
        },
        {
            "bufferView" : 18,
            "componentType" : 5126,
            "count" : 4,
            "max" : [
                0.49994096159935,
                -0.5233731269836426,
                0.49908724427223206
            ],
            "min" : [
                -0.5003005862236023,
                -0.5261602401733398,
                -0.5046373605728149
            ],
            "type" : "VEC3"
        },
        {
            "bufferView" : 19,
            "componentType" : 5126,
            "count" : 4,
            "type" : "VEC3"
        },
        {
            "bufferView" : 20,
            "componentType" : 5126,
            "count" : 4,
            "type" : "VEC2"
        },
        {
            "bufferView" : 22,
            "componentType" : 5126,
            "count" : 765,
            "max" : [
                0.4483896493911743,
                0.4550183415412903,
                0.45220935344696045
            ],
            "min" : [
                -0.4483896493911743,
                -0.45501863956451416,
                -0.4522094428539276
            ],
            "type" : "VEC3"
        },
        {
            "bufferView" : 23,
            "componentType" : 5126,
            "count" : 765,
            "type" : "VEC3"
        },
        {
            "bufferView" : 24,
            "componentType" : 5126,
            "count" : 765,
            "type" : "VEC2"
        },
        {
            "bufferView" : 25,
            "componentType" : 5123,
            "count" : 765,
            "type" : "VEC4"
        },
        {
            "bufferView" : 26,
            "componentType" : 5126,
            "count" : 765,
            "type" : "VEC4"
        },
        {
            "bufferView" : 27,
            "componentType" : 5123,
            "count" : 1140,
            "type" : "SCALAR"
        },
        {
            "bufferView" : 28,
            "componentType" : 5126,
            "count" : 223,
            "max" : [
                0.4483896493911743,
                0.45501822233200073,
                0.28173568844795227
            ],
            "min" : [
                -0.4483896493911743,
                -0.45501863956451416,
                -0.2817363142967224
            ],
            "type" : "VEC3"
        },
        {
            "bufferView" : 29,
            "componentType" : 5126,
            "count" : 223,
            "type" : "VEC3"
        },
        {
            "bufferView" : 30,
            "componentType" : 5126,
            "count" : 223,
            "type" : "VEC2"
        },
        {
            "bufferView" : 31,
            "componentType" : 5123,
            "count" : 223,
            "type" : "VEC4"
        },
        {
            "bufferView" : 32,
            "componentType" : 5126,
            "count" : 223,
            "type" : "VEC4"
        },
        {
            "bufferView" : 33,
            "componentType" : 5123,
            "count" : 336,
            "type" : "SCALAR"
        }
    ],
    "bufferViews" : [
        {
            "buffer" : 0,
            "byteLength" : 480,
            "byteOffset" : 0
        },
        {
            "buffer" : 0,
            "byteLength" : 480,
            "byteOffset" : 480
        },
        {
            "buffer" : 0,
            "byteLength" : 320,
            "byteOffset" : 960
        },
        {
            "buffer" : 0,
            "byteLength" : 120,
            "byteOffset" : 1280
        },
        {
            "buffer" : 0,
            "byteLength" : 6328,
            "byteOffset" : 1400
        },
        {
            "buffer" : 0,
            "byteLength" : 48,
            "byteOffset" : 7728
        },
        {
            "buffer" : 0,
            "byteLength" : 48,
            "byteOffset" : 7776
        },
        {
            "buffer" : 0,
            "byteLength" : 32,
            "byteOffset" : 7824
        },
        {
            "buffer" : 0,
            "byteLength" : 12,
            "byteOffset" : 7856
        },
        {
            "buffer" : 0,
            "byteLength" : 1710,
            "byteOffset" : 7868
        },
        {
            "buffer" : 0,
            "byteLength" : 48,
            "byteOffset" : 9580
        },
        {
            "buffer" : 0,
            "byteLength" : 48,
            "byteOffset" : 9628
        },
        {
            "buffer" : 0,
            "byteLength" : 32,
            "byteOffset" : 9676
        },
        {
            "buffer" : 0,
            "byteLength" : 10871,
            "byteOffset" : 9708
        },
        {
            "buffer" : 0,
            "byteLength" : 48,
            "byteOffset" : 20580
        },
        {
            "buffer" : 0,
            "byteLength" : 48,
            "byteOffset" : 20628
        },
        {
            "buffer" : 0,
            "byteLength" : 32,
            "byteOffset" : 20676
        },
        {
            "buffer" : 0,
            "byteLength" : 18711,
            "byteOffset" : 20708
        },
        {
            "buffer" : 0,
            "byteLength" : 48,
            "byteOffset" : 39420
        },
        {
            "buffer" : 0,
            "byteLength" : 48,
            "byteOffset" : 39468
        },
        {
            "buffer" : 0,
            "byteLength" : 32,
            "byteOffset" : 39516
        },
        {
            "buffer" : 0,
            "byteLength" : 16393,
            "byteOffset" : 39548
        },
        {
            "buffer" : 0,
            "byteLength" : 9180,
            "byteOffset" : 55944
        },
        {
            "buffer" : 0,
            "byteLength" : 9180,
            "byteOffset" : 65124
        },
        {
            "buffer" : 0,
            "byteLength" : 6120,
            "byteOffset" : 74304
        },
        {
            "buffer" : 0,
            "byteLength" : 6120,
            "byteOffset" : 80424
        },
        {
            "buffer" : 0,
            "byteLength" : 12240,
            "byteOffset" : 86544
        },
        {
            "buffer" : 0,
            "byteLength" : 2280,
            "byteOffset" : 98784
        },
        {
            "buffer" : 0,
            "byteLength" : 2676,
            "byteOffset" : 101064
        },
        {
            "buffer" : 0,
            "byteLength" : 2676,
            "byteOffset" : 103740
        },
        {
            "buffer" : 0,
            "byteLength" : 1784,
            "byteOffset" : 106416
        },
        {
            "buffer" : 0,
            "byteLength" : 1784,
            "byteOffset" : 108200
        },
        {
            "buffer" : 0,
            "byteLength" : 3568,
            "byteOffset" : 109984
        },
        {
            "buffer" : 0,
            "byteLength" : 672,
            "byteOffset" : 113552
        }
    ],
    "buffers" : [
        {
            "byteLength" : 114224,
            "uri" : "data:application/octet-stream;base64,"
        }
    ]
}
