{
    "asset" : {
        "copyright" : "TheFamousRat",
        "generator" : "Khronos glTF Blender I/O v1.1.46",
        "version" : "2.0"
    },
    "scene" : 0,
    "scenes" : [
        {
            "name" : "Scene",
            "nodes" : [
                2
            ]
        }
    ],
    "nodes" : [
        {
            "mesh" : 0,
            "name" : "RedSticker.013",
            "rotation" : [
                0.689805805683136,
                0.15546032786369324,
                -0.15546029806137085,
                0.6898058652877808
            ],
            "scale" : [
                0.6669873595237732,
                0.6669873595237732,
                0.6669873595237732
            ],
            "translation" : [
                -0.06501985341310501,
                0.9121571183204651,
                -0.09568759053945541
            ]
        },
        {
            "mesh" : 1,
            "name" : "sign2.016",
            "rotation" : [
                0.5000000596046448,
                0.49999991059303284,
                -0.4999999403953552,
                0.5000000596046448
            ],
            "scale" : [
                0.2223706692457199,
                0.2223706692457199,
                0.2223706692457199
            ],
            "translation" : [
                0.21858148276805878,
                -0.5226794481277466,
                -0.03800635412335396
            ]
        },
        {
            "children" : [
                0,
                1
            ],
            "mesh" : 2,
            "name" : "Cardboard.022",
            "scale" : [
                0.7610931396484375,
                0.7610931396484375,
                0.7610931396484375
            ]
        }
    ],
    "materials" : [
        {
            "doubleSided" : true,
            "emissiveFactor" : [
                0,
                0,
                0
            ],
            "name" : "RedSticker",
            "pbrMetallicRoughness" : {
                "baseColorTexture" : {
                    "index" : 0,
                    "texCoord" : 0
                },
                "metallicFactor" : 0
            }
        },
        {
            "alphaMode" : "BLEND",
            "doubleSided" : true,
            "emissiveFactor" : [
                0,
                0,
                0
            ],
            "name" : "sign2",
            "pbrMetallicRoughness" : {
                "baseColorTexture" : {
                    "index" : 1,
                    "texCoord" : 0
                },
                "metallicFactor" : 0,
                "roughnessFactor" : 0.5
            }
        },
        {
            "doubleSided" : true,
            "emissiveFactor" : [
                0,
                0,
                0
            ],
            "name" : "Cardboard",
            "pbrMetallicRoughness" : {
                "baseColorFactor" : [
                    0.43854397535324097,
                    0.22114567458629608,
                    0.07486508041620255,
                    1
                ],
                "metallicFactor" : 0,
                "roughnessFactor" : 0.800000011920929
            }
        },
        {
            "doubleSided" : true,
            "emissiveFactor" : [
                0,
                0,
                0
            ],
            "name" : "CardboardTape",
            "pbrMetallicRoughness" : {
                "baseColorFactor" : [
                    0.8000000715255737,
                    0.7577246427536011,
                    0.3579860031604767,
                    1
                ],
                "metallicFactor" : 0,
                "roughnessFactor" : 0.30000001192092896
            }
        }
    ],
    "meshes" : [
        {
            "name" : "Plane.007",
            "primitives" : [
                {
                    "attributes" : {
                        "POSITION" : 0,
                        "NORMAL" : 1,
                        "TEXCOORD_0" : 2
                    },
                    "indices" : 3,
                    "material" : 0
                }
            ]
        },
        {
            "name" : "sign2.003",
            "primitives" : [
                {
                    "attributes" : {
                        "POSITION" : 4,
                        "NORMAL" : 5,
                        "TEXCOORD_0" : 6
                    },
                    "indices" : 7,
                    "material" : 1
                }
            ]
        },
        {
            "name" : "Cube.009",
            "primitives" : [
                {
                    "attributes" : {
                        "POSITION" : 8,
                        "NORMAL" : 9,
                        "TEXCOORD_0" : 10,
                        "JOINTS_0" : 11,
                        "WEIGHTS_0" : 12
                    },
                    "indices" : 13,
                    "material" : 2
                },
                {
                    "attributes" : {
                        "POSITION" : 14,
                        "NORMAL" : 15,
                        "TEXCOORD_0" : 16,
                        "JOINTS_0" : 17,
                        "WEIGHTS_0" : 18
                    },
                    "indices" : 19,
                    "material" : 3
                }
            ]
        }
    ],
    "textures" : [
        {
            "source" : 0
        },
        {
            "source" : 1
        }
    ],
    "images" : [
        {
            "bufferView" : 4,
            "mimeType" : "image/png",
            "name" : "RedStickerDiffuse"
        },
        {
            "bufferView" : 9,
            "mimeType" : "image/png",
            "name" : "sign2"
        }
    ],
    "accessors" : [
        {
            "bufferView" : 0,
            "componentType" : 5126,
            "count" : 40,
            "max" : [
                0.11747049540281296,
                0.08210770040750504,
                0.39570868015289307
            ],
            "min" : [
                -0.12253229320049286,
                -0.07144990563392639,
                0.3920900225639343
            ],
            "type" : "VEC3"
        },
        {
            "bufferView" : 1,
            "componentType" : 5126,
            "count" : 40,
            "type" : "VEC3"
        },
        {
            "bufferView" : 2,
            "componentType" : 5126,
            "count" : 40,
            "type" : "VEC2"
        },
        {
            "bufferView" : 3,
            "componentType" : 5123,
            "count" : 60,
            "type" : "SCALAR"
        },
        {
            "bufferView" : 5,
            "componentType" : 5126,
            "count" : 4,
            "max" : [
                0.5000001192092896,
                -0.17167717218399048,
                0.49987196922302246
            ],
            "min" : [
                -0.5000002384185791,
                -0.17241835594177246,
                -0.5001280307769775
            ],
            "type" : "VEC3"
        },
        {
            "bufferView" : 6,
            "componentType" : 5126,
            "count" : 4,
            "type" : "VEC3"
        },
        {
            "bufferView" : 7,
            "componentType" : 5126,
            "count" : 4,
            "type" : "VEC2"
        },
        {
            "bufferView" : 8,
            "componentType" : 5123,
            "count" : 6,
            "type" : "SCALAR"
        },
        {
            "bufferView" : 10,
            "componentType" : 5126,
            "count" : 695,
            "max" : [
                0.1792268007993698,
                0.6477988362312317,
                0.17994697391986847
            ],
            "min" : [
                -0.1792268007993698,
                -0.6477991342544556,
                -0.17994657158851624
            ],
            "type" : "VEC3"
        },
        {
            "bufferView" : 11,
            "componentType" : 5126,
            "count" : 695,
            "type" : "VEC3"
        },
        {
            "bufferView" : 12,
            "componentType" : 5126,
            "count" : 695,
            "type" : "VEC2"
        },
        {
            "bufferView" : 13,
            "componentType" : 5123,
            "count" : 695,
            "type" : "VEC4"
        },
        {
            "bufferView" : 14,
            "componentType" : 5126,
            "count" : 695,
            "type" : "VEC4"
        },
        {
            "bufferView" : 15,
            "componentType" : 5123,
            "count" : 1068,
            "type" : "SCALAR"
        },
        {
            "bufferView" : 16,
            "componentType" : 5126,
            "count" : 138,
            "max" : [
                0.03192829713225365,
                0.6477987766265869,
                0.17994695901870728
            ],
            "min" : [
                -0.03192831948399544,
                0.3905407190322876,
                -0.17994658648967743
            ],
            "type" : "VEC3"
        },
        {
            "bufferView" : 17,
            "componentType" : 5126,
            "count" : 138,
            "type" : "VEC3"
        },
        {
            "bufferView" : 18,
            "componentType" : 5126,
            "count" : 138,
            "type" : "VEC2"
        },
        {
            "bufferView" : 19,
            "componentType" : 5123,
            "count" : 138,
            "type" : "VEC4"
        },
        {
            "bufferView" : 20,
            "componentType" : 5126,
            "count" : 138,
            "type" : "VEC4"
        },
        {
            "bufferView" : 21,
            "componentType" : 5123,
            "count" : 216,
            "type" : "SCALAR"
        }
    ],
    "bufferViews" : [
        {
            "buffer" : 0,
            "byteLength" : 480,
            "byteOffset" : 0
        },
        {
            "buffer" : 0,
            "byteLength" : 480,
            "byteOffset" : 480
        },
        {
            "buffer" : 0,
            "byteLength" : 320,
            "byteOffset" : 960
        },
        {
            "buffer" : 0,
            "byteLength" : 120,
            "byteOffset" : 1280
        },
        {
            "buffer" : 0,
            "byteLength" : 6614,
            "byteOffset" : 1400
        },
        {
            "buffer" : 0,
            "byteLength" : 48,
            "byteOffset" : 8016
        },
        {
            "buffer" : 0,
            "byteLength" : 48,
            "byteOffset" : 8064
        },
        {
            "buffer" : 0,
            "byteLength" : 32,
            "byteOffset" : 8112
        },
        {
            "buffer" : 0,
            "byteLength" : 12,
            "byteOffset" : 8144
        },
        {
            "buffer" : 0,
            "byteLength" : 10871,
            "byteOffset" : 8156
        },
        {
            "buffer" : 0,
            "byteLength" : 8340,
            "byteOffset" : 19028
        },
        {
            "buffer" : 0,
            "byteLength" : 8340,
            "byteOffset" : 27368
        },
        {
            "buffer" : 0,
            "byteLength" : 5560,
            "byteOffset" : 35708
        },
        {
            "buffer" : 0,
            "byteLength" : 5560,
            "byteOffset" : 41268
        },
        {
            "buffer" : 0,
            "byteLength" : 11120,
            "byteOffset" : 46828
        },
        {
            "buffer" : 0,
            "byteLength" : 2136,
            "byteOffset" : 57948
        },
        {
            "buffer" : 0,
            "byteLength" : 1656,
            "byteOffset" : 60084
        },
        {
            "buffer" : 0,
            "byteLength" : 1656,
            "byteOffset" : 61740
        },
        {
            "buffer" : 0,
            "byteLength" : 1104,
            "byteOffset" : 63396
        },
        {
            "buffer" : 0,
            "byteLength" : 1104,
            "byteOffset" : 64500
        },
        {
            "buffer" : 0,
            "byteLength" : 2208,
            "byteOffset" : 65604
        },
        {
            "buffer" : 0,
            "byteLength" : 432,
            "byteOffset" : 67812
        }
    ],
    "buffers" : [
        {
            "byteLength" : 68244,
            "uri" : "data:application/octet-stream;base64,"
        }
    ]
}
