{
    "asset" : {
        "copyright" : "TheFamousRat",
        "generator" : "Khronos glTF Blender I/O v1.1.46",
        "version" : "2.0"
    },
    "scene" : 0,
    "scenes" : [
        {
            "name" : "Scene",
            "nodes" : [
                3
            ]
        }
    ],
    "nodes" : [
        {
            "mesh" : 0,
            "name" : "RedSticker.001",
            "rotation" : [
                0.1563922017812729,
                0.689595103263855,
                -0.3716772496700287,
                0.6015447378158569
            ],
            "translation" : [
                0.8862953782081604,
                0.2166016697883606,
                0.17122787237167358
            ]
        },
        {
            "mesh" : 1,
            "name" : "sign2.006",
            "rotation" : [
                0.5000000596046448,
                0.49999991059303284,
                -0.4999999403953552,
                0.5000000596046448
            ],
            "scale" : [
                0.17406965792179108,
                0.17406965792179108,
                0.17406965792179108
            ],
            "translation" : [
                0.4517284333705902,
                -0.4506281316280365,
                0.31433388590812683
            ]
        },
        {
            "mesh" : 2,
            "name" : "sign4.005",
            "rotation" : [
                0.5000000596046448,
                0.49999991059303284,
                -0.4999999403953552,
                0.5000000596046448
            ],
            "scale" : [
                0.17406965792179108,
                0.17406965792179108,
                0.17406965792179108
            ],
            "translation" : [
                0.4791940152645111,
                -0.2641039192676544,
                0.3157672584056854
            ]
        },
        {
            "children" : [
                0,
                1,
                2
            ],
            "mesh" : 3,
            "name" : "Cardboard.013",
            "rotation" : [
                0,
                0.7071067690849304,
                0,
                0.7071068286895752
            ]
        }
    ],
    "materials" : [
        {
            "doubleSided" : true,
            "emissiveFactor" : [
                0,
                0,
                0
            ],
            "name" : "RedSticker",
            "pbrMetallicRoughness" : {
                "baseColorTexture" : {
                    "index" : 0,
                    "texCoord" : 0
                },
                "metallicFactor" : 0
            }
        },
        {
            "alphaMode" : "BLEND",
            "doubleSided" : true,
            "emissiveFactor" : [
                0,
                0,
                0
            ],
            "name" : "sign2",
            "pbrMetallicRoughness" : {
                "baseColorTexture" : {
                    "index" : 1,
                    "texCoord" : 0
                },
                "metallicFactor" : 0,
                "roughnessFactor" : 0.5
            }
        },
        {
            "alphaMode" : "BLEND",
            "doubleSided" : true,
            "emissiveFactor" : [
                0,
                0,
                0
            ],
            "name" : "sign4",
            "pbrMetallicRoughness" : {
                "baseColorTexture" : {
                    "index" : 2,
                    "texCoord" : 0
                },
                "metallicFactor" : 0
            }
        },
        {
            "doubleSided" : true,
            "emissiveFactor" : [
                0,
                0,
                0
            ],
            "name" : "Cardboard",
            "pbrMetallicRoughness" : {
                "baseColorFactor" : [
                    0.43854397535324097,
                    0.22114567458629608,
                    0.07486508041620255,
                    1
                ],
                "metallicFactor" : 0,
                "roughnessFactor" : 0.800000011920929
            }
        },
        {
            "doubleSided" : true,
            "emissiveFactor" : [
                0,
                0,
                0
            ],
            "name" : "CardboardTape",
            "pbrMetallicRoughness" : {
                "baseColorFactor" : [
                    0.8000000715255737,
                    0.7577246427536011,
                    0.3579860031604767,
                    1
                ],
                "metallicFactor" : 0,
                "roughnessFactor" : 0.30000001192092896
            }
        }
    ],
    "meshes" : [
        {
            "name" : "Plane.010",
            "primitives" : [
                {
                    "attributes" : {
                        "POSITION" : 0,
                        "NORMAL" : 1,
                        "TEXCOORD_0" : 2
                    },
                    "indices" : 3,
                    "material" : 0
                }
            ]
        },
        {
            "name" : "sign2.009",
            "primitives" : [
                {
                    "attributes" : {
                        "POSITION" : 4,
                        "NORMAL" : 5,
                        "TEXCOORD_0" : 6
                    },
                    "indices" : 7,
                    "material" : 1
                }
            ]
        },
        {
            "name" : "sign4.005",
            "primitives" : [
                {
                    "attributes" : {
                        "POSITION" : 8,
                        "NORMAL" : 9,
                        "TEXCOORD_0" : 10
                    },
                    "indices" : 7,
                    "material" : 2
                }
            ]
        },
        {
            "name" : "Cube.004",
            "primitives" : [
                {
                    "attributes" : {
                        "POSITION" : 11,
                        "NORMAL" : 12,
                        "TEXCOORD_0" : 13,
                        "JOINTS_0" : 14,
                        "WEIGHTS_0" : 15
                    },
                    "indices" : 16,
                    "material" : 3
                },
                {
                    "attributes" : {
                        "POSITION" : 17,
                        "NORMAL" : 18,
                        "TEXCOORD_0" : 19,
                        "JOINTS_0" : 20,
                        "WEIGHTS_0" : 21
                    },
                    "indices" : 22,
                    "material" : 4
                }
            ]
        }
    ],
    "textures" : [
        {
            "source" : 0
        },
        {
            "source" : 1
        },
        {
            "source" : 2
        }
    ],
    "images" : [
        {
            "bufferView" : 4,
            "mimeType" : "image/png",
            "name" : "RedStickerDiffuse"
        },
        {
            "bufferView" : 9,
            "mimeType" : "image/png",
            "name" : "sign2"
        },
        {
            "bufferView" : 13,
            "mimeType" : "image/png",
            "name" : "sign4"
        }
    ],
    "accessors" : [
        {
            "bufferView" : 0,
            "componentType" : 5126,
            "count" : 40,
            "max" : [
                0.10345456004142761,
                0.12501740455627441,
                -0.317537397146225
            ],
            "min" : [
                -0.13705745339393616,
                -0.02705514430999756,
                -0.3512793183326721
            ],
            "type" : "VEC3"
        },
        {
            "bufferView" : 1,
            "componentType" : 5126,
            "count" : 40,
            "type" : "VEC3"
        },
        {
            "bufferView" : 2,
            "componentType" : 5126,
            "count" : 40,
            "type" : "VEC2"
        },
        {
            "bufferView" : 3,
            "componentType" : 5123,
            "count" : 60,
            "type" : "SCALAR"
        },
        {
            "bufferView" : 5,
            "componentType" : 5126,
            "count" : 4,
            "max" : [
                0.49999988079071045,
                -0.004164218902587891,
                0.49998998641967773
            ],
            "min" : [
                -0.49997544288635254,
                -0.00804758071899414,
                -0.5000081062316895
            ],
            "type" : "VEC3"
        },
        {
            "bufferView" : 6,
            "componentType" : 5126,
            "count" : 4,
            "type" : "VEC3"
        },
        {
            "bufferView" : 7,
            "componentType" : 5126,
            "count" : 4,
            "type" : "VEC2"
        },
        {
            "bufferView" : 8,
            "componentType" : 5123,
            "count" : 6,
            "type" : "SCALAR"
        },
        {
            "bufferView" : 10,
            "componentType" : 5126,
            "count" : 4,
            "max" : [
                0.5000002384185791,
                -0.16008305549621582,
                0.49979114532470703
            ],
            "min" : [
                -0.4992762804031372,
                -0.16434383392333984,
                -0.5002785921096802
            ],
            "type" : "VEC3"
        },
        {
            "bufferView" : 11,
            "componentType" : 5126,
            "count" : 4,
            "type" : "VEC3"
        },
        {
            "bufferView" : 12,
            "componentType" : 5126,
            "count" : 4,
            "type" : "VEC2"
        },
        {
            "bufferView" : 14,
            "componentType" : 5126,
            "count" : 855,
            "max" : [
                0.805659294128418,
                0.5903380513191223,
                0.4518684148788452
            ],
            "min" : [
                -0.805659294128418,
                -0.5903380513191223,
                -0.4518684148788452
            ],
            "type" : "VEC3"
        },
        {
            "bufferView" : 15,
            "componentType" : 5126,
            "count" : 855,
            "type" : "VEC3"
        },
        {
            "bufferView" : 16,
            "componentType" : 5126,
            "count" : 855,
            "type" : "VEC2"
        },
        {
            "bufferView" : 17,
            "componentType" : 5123,
            "count" : 855,
            "type" : "VEC4"
        },
        {
            "bufferView" : 18,
            "componentType" : 5126,
            "count" : 855,
            "type" : "VEC4"
        },
        {
            "bufferView" : 19,
            "componentType" : 5123,
            "count" : 1296,
            "type" : "SCALAR"
        },
        {
            "bufferView" : 20,
            "componentType" : 5126,
            "count" : 120,
            "max" : [
                0.805659294128418,
                0.5903380513191223,
                0.28173568844795227
            ],
            "min" : [
                -0.8056591749191284,
                -0.5903380513191223,
                -0.28173625469207764
            ],
            "type" : "VEC3"
        },
        {
            "bufferView" : 21,
            "componentType" : 5126,
            "count" : 120,
            "type" : "VEC3"
        },
        {
            "bufferView" : 22,
            "componentType" : 5126,
            "count" : 120,
            "type" : "VEC2"
        },
        {
            "bufferView" : 23,
            "componentType" : 5123,
            "count" : 120,
            "type" : "VEC4"
        },
        {
            "bufferView" : 24,
            "componentType" : 5126,
            "count" : 120,
            "type" : "VEC4"
        },
        {
            "bufferView" : 25,
            "componentType" : 5123,
            "count" : 180,
            "type" : "SCALAR"
        }
    ],
    "bufferViews" : [
        {
            "buffer" : 0,
            "byteLength" : 480,
            "byteOffset" : 0
        },
        {
            "buffer" : 0,
            "byteLength" : 480,
            "byteOffset" : 480
        },
        {
            "buffer" : 0,
            "byteLength" : 320,
            "byteOffset" : 960
        },
        {
            "buffer" : 0,
            "byteLength" : 120,
            "byteOffset" : 1280
        },
        {
            "buffer" : 0,
            "byteLength" : 6614,
            "byteOffset" : 1400
        },
        {
            "buffer" : 0,
            "byteLength" : 48,
            "byteOffset" : 8016
        },
        {
            "buffer" : 0,
            "byteLength" : 48,
            "byteOffset" : 8064
        },
        {
            "buffer" : 0,
            "byteLength" : 32,
            "byteOffset" : 8112
        },
        {
            "buffer" : 0,
            "byteLength" : 12,
            "byteOffset" : 8144
        },
        {
            "buffer" : 0,
            "byteLength" : 10871,
            "byteOffset" : 8156
        },
        {
            "buffer" : 0,
            "byteLength" : 48,
            "byteOffset" : 19028
        },
        {
            "buffer" : 0,
            "byteLength" : 48,
            "byteOffset" : 19076
        },
        {
            "buffer" : 0,
            "byteLength" : 32,
            "byteOffset" : 19124
        },
        {
            "buffer" : 0,
            "byteLength" : 16393,
            "byteOffset" : 19156
        },
        {
            "buffer" : 0,
            "byteLength" : 10260,
            "byteOffset" : 35552
        },
        {
            "buffer" : 0,
            "byteLength" : 10260,
            "byteOffset" : 45812
        },
        {
            "buffer" : 0,
            "byteLength" : 6840,
            "byteOffset" : 56072
        },
        {
            "buffer" : 0,
            "byteLength" : 6840,
            "byteOffset" : 62912
        },
        {
            "buffer" : 0,
            "byteLength" : 13680,
            "byteOffset" : 69752
        },
        {
            "buffer" : 0,
            "byteLength" : 2592,
            "byteOffset" : 83432
        },
        {
            "buffer" : 0,
            "byteLength" : 1440,
            "byteOffset" : 86024
        },
        {
            "buffer" : 0,
            "byteLength" : 1440,
            "byteOffset" : 87464
        },
        {
            "buffer" : 0,
            "byteLength" : 960,
            "byteOffset" : 88904
        },
        {
            "buffer" : 0,
            "byteLength" : 960,
            "byteOffset" : 89864
        },
        {
            "buffer" : 0,
            "byteLength" : 1920,
            "byteOffset" : 90824
        },
        {
            "buffer" : 0,
            "byteLength" : 360,
            "byteOffset" : 92744
        }
    ],
    "buffers" : [
        {
            "byteLength" : 93104,
            "uri" : "data:application/octet-stream;base64,"
        }
    ]
}
