{
    "asset" : {
        "copyright" : "TheFamousRat",
        "generator" : "Khronos glTF Blender I/O v1.1.46",
        "version" : "2.0"
    },
    "scene" : 0,
    "scenes" : [
        {
            "name" : "Scene",
            "nodes" : [
                2
            ]
        }
    ],
    "nodes" : [
        {
            "mesh" : 0,
            "name" : "RedSticker.011",
            "rotation" : [
                0,
                0,
                -0.1598641276359558,
                0.987139105796814
            ],
            "scale" : [
                1.0335302352905273,
                1.0335302352905273,
                1.0335304737091064
            ],
            "translation" : [
                -0.1880711019039154,
                0.1058739498257637,
                0.29430070519447327
            ]
        },
        {
            "mesh" : 1,
            "name" : "sign2.012",
            "rotation" : [
                0.5000000596046448,
                0.5,
                -0.5,
                0.5000000596046448
            ],
            "scale" : [
                0.20253321528434753,
                0.20253321528434753,
                0.20253321528434753
            ],
            "translation" : [
                0.4324832856655121,
                -0.013661520555615425,
                -0.06302985548973083
            ]
        },
        {
            "children" : [
                0,
                1
            ],
            "mesh" : 2,
            "name" : "Cardboard.020",
            "rotation" : [
                0,
                -0.7071067690849304,
                0,
                0.7071068286895752
            ],
            "scale" : [
                0.7610931396484375,
                0.7610931396484375,
                0.7610931396484375
            ]
        }
    ],
    "materials" : [
        {
            "doubleSided" : true,
            "emissiveFactor" : [
                0,
                0,
                0
            ],
            "name" : "RedSticker",
            "pbrMetallicRoughness" : {
                "baseColorTexture" : {
                    "index" : 0,
                    "texCoord" : 0
                },
                "metallicFactor" : 0
            }
        },
        {
            "alphaMode" : "BLEND",
            "doubleSided" : true,
            "emissiveFactor" : [
                0,
                0,
                0
            ],
            "name" : "sign2",
            "pbrMetallicRoughness" : {
                "baseColorTexture" : {
                    "index" : 1,
                    "texCoord" : 0
                },
                "metallicFactor" : 0,
                "roughnessFactor" : 0.5
            }
        },
        {
            "doubleSided" : true,
            "emissiveFactor" : [
                0,
                0,
                0
            ],
            "name" : "Cardboard",
            "pbrMetallicRoughness" : {
                "baseColorFactor" : [
                    0.43854397535324097,
                    0.22114567458629608,
                    0.07486508041620255,
                    1
                ],
                "metallicFactor" : 0,
                "roughnessFactor" : 0.800000011920929
            }
        },
        {
            "doubleSided" : true,
            "emissiveFactor" : [
                0,
                0,
                0
            ],
            "name" : "CardboardTape",
            "pbrMetallicRoughness" : {
                "baseColorFactor" : [
                    0.8000000715255737,
                    0.7577246427536011,
                    0.3579860031604767,
                    1
                ],
                "metallicFactor" : 0,
                "roughnessFactor" : 0.30000001192092896
            }
        }
    ],
    "meshes" : [
        {
            "name" : "Plane.004",
            "primitives" : [
                {
                    "attributes" : {
                        "POSITION" : 0,
                        "NORMAL" : 1,
                        "TEXCOORD_0" : 2
                    },
                    "indices" : 3,
                    "material" : 0
                }
            ]
        },
        {
            "name" : "sign2.001",
            "primitives" : [
                {
                    "attributes" : {
                        "POSITION" : 4,
                        "NORMAL" : 5,
                        "TEXCOORD_0" : 6
                    },
                    "indices" : 7,
                    "material" : 1
                }
            ]
        },
        {
            "name" : "Cube.007",
            "primitives" : [
                {
                    "attributes" : {
                        "POSITION" : 8,
                        "NORMAL" : 9,
                        "TEXCOORD_0" : 10,
                        "JOINTS_0" : 11,
                        "WEIGHTS_0" : 12
                    },
                    "indices" : 13,
                    "material" : 2
                },
                {
                    "attributes" : {
                        "POSITION" : 14,
                        "NORMAL" : 15,
                        "TEXCOORD_0" : 16,
                        "JOINTS_0" : 17,
                        "WEIGHTS_0" : 18
                    },
                    "indices" : 19,
                    "material" : 3
                }
            ]
        }
    ],
    "textures" : [
        {
            "source" : 0
        },
        {
            "source" : 1
        }
    ],
    "images" : [
        {
            "bufferView" : 4,
            "mimeType" : "image/png",
            "name" : "RedStickerDiffuse"
        },
        {
            "bufferView" : 9,
            "mimeType" : "image/png",
            "name" : "sign2"
        }
    ],
    "accessors" : [
        {
            "bufferView" : 0,
            "componentType" : 5126,
            "count" : 40,
            "max" : [
                0.1200217753648758,
                0.07678970694541931,
                -0.03996099531650543
            ],
            "min" : [
                -0.11997821927070618,
                -0.07670633494853973,
                -0.04031747579574585
            ],
            "type" : "VEC3"
        },
        {
            "bufferView" : 1,
            "componentType" : 5126,
            "count" : 40,
            "type" : "VEC3"
        },
        {
            "bufferView" : 2,
            "componentType" : 5126,
            "count" : 40,
            "type" : "VEC2"
        },
        {
            "bufferView" : 3,
            "componentType" : 5123,
            "count" : 60,
            "type" : "SCALAR"
        },
        {
            "bufferView" : 5,
            "componentType" : 5126,
            "count" : 4,
            "max" : [
                0.5,
                -0.22275173664093018,
                0.49925482273101807
            ],
            "min" : [
                -0.5000001788139343,
                -0.2393110990524292,
                -0.5074722170829773
            ],
            "type" : "VEC3"
        },
        {
            "bufferView" : 6,
            "componentType" : 5126,
            "count" : 4,
            "type" : "VEC3"
        },
        {
            "bufferView" : 7,
            "componentType" : 5126,
            "count" : 4,
            "type" : "VEC2"
        },
        {
            "bufferView" : 8,
            "componentType" : 5123,
            "count" : 6,
            "type" : "SCALAR"
        },
        {
            "bufferView" : 10,
            "componentType" : 5126,
            "count" : 586,
            "max" : [
                0.5292714834213257,
                0.41078492999076843,
                0.43607285618782043
            ],
            "min" : [
                -0.5292714834213257,
                -0.2500000298023224,
                -0.4360727071762085
            ],
            "type" : "VEC3"
        },
        {
            "bufferView" : 11,
            "componentType" : 5126,
            "count" : 586,
            "type" : "VEC3"
        },
        {
            "bufferView" : 12,
            "componentType" : 5126,
            "count" : 586,
            "type" : "VEC2"
        },
        {
            "bufferView" : 13,
            "componentType" : 5123,
            "count" : 586,
            "type" : "VEC4"
        },
        {
            "bufferView" : 14,
            "componentType" : 5126,
            "count" : 586,
            "type" : "VEC4"
        },
        {
            "bufferView" : 15,
            "componentType" : 5123,
            "count" : 888,
            "type" : "SCALAR"
        },
        {
            "bufferView" : 16,
            "componentType" : 5126,
            "count" : 32,
            "max" : [
                0.04561186209321022,
                0.4107847511768341,
                0.43607276678085327
            ],
            "min" : [
                -0.04561186209321022,
                0,
                -0.4360727071762085
            ],
            "type" : "VEC3"
        },
        {
            "bufferView" : 17,
            "componentType" : 5126,
            "count" : 32,
            "type" : "VEC3"
        },
        {
            "bufferView" : 18,
            "componentType" : 5126,
            "count" : 32,
            "type" : "VEC2"
        },
        {
            "bufferView" : 19,
            "componentType" : 5123,
            "count" : 32,
            "type" : "VEC4"
        },
        {
            "bufferView" : 20,
            "componentType" : 5126,
            "count" : 32,
            "type" : "VEC4"
        },
        {
            "bufferView" : 21,
            "componentType" : 5123,
            "count" : 48,
            "type" : "SCALAR"
        }
    ],
    "bufferViews" : [
        {
            "buffer" : 0,
            "byteLength" : 480,
            "byteOffset" : 0
        },
        {
            "buffer" : 0,
            "byteLength" : 480,
            "byteOffset" : 480
        },
        {
            "buffer" : 0,
            "byteLength" : 320,
            "byteOffset" : 960
        },
        {
            "buffer" : 0,
            "byteLength" : 120,
            "byteOffset" : 1280
        },
        {
            "buffer" : 0,
            "byteLength" : 6614,
            "byteOffset" : 1400
        },
        {
            "buffer" : 0,
            "byteLength" : 48,
            "byteOffset" : 8016
        },
        {
            "buffer" : 0,
            "byteLength" : 48,
            "byteOffset" : 8064
        },
        {
            "buffer" : 0,
            "byteLength" : 32,
            "byteOffset" : 8112
        },
        {
            "buffer" : 0,
            "byteLength" : 12,
            "byteOffset" : 8144
        },
        {
            "buffer" : 0,
            "byteLength" : 10871,
            "byteOffset" : 8156
        },
        {
            "buffer" : 0,
            "byteLength" : 7032,
            "byteOffset" : 19028
        },
        {
            "buffer" : 0,
            "byteLength" : 7032,
            "byteOffset" : 26060
        },
        {
            "buffer" : 0,
            "byteLength" : 4688,
            "byteOffset" : 33092
        },
        {
            "buffer" : 0,
            "byteLength" : 4688,
            "byteOffset" : 37780
        },
        {
            "buffer" : 0,
            "byteLength" : 9376,
            "byteOffset" : 42468
        },
        {
            "buffer" : 0,
            "byteLength" : 1776,
            "byteOffset" : 51844
        },
        {
            "buffer" : 0,
            "byteLength" : 384,
            "byteOffset" : 53620
        },
        {
            "buffer" : 0,
            "byteLength" : 384,
            "byteOffset" : 54004
        },
        {
            "buffer" : 0,
            "byteLength" : 256,
            "byteOffset" : 54388
        },
        {
            "buffer" : 0,
            "byteLength" : 256,
            "byteOffset" : 54644
        },
        {
            "buffer" : 0,
            "byteLength" : 512,
            "byteOffset" : 54900
        },
        {
            "buffer" : 0,
            "byteLength" : 96,
            "byteOffset" : 55412
        }
    ],
    "buffers" : [
        {
            "byteLength" : 55508,
            "uri" : "data:application/octet-stream;base64,"
        }
    ]
}
