{
    "asset" : {
        "copyright" : "TheFamousRat",
        "generator" : "Khronos glTF Blender I/O v1.1.46",
        "version" : "2.0"
    },
    "scene" : 0,
    "scenes" : [
        {
            "name" : "Scene",
            "nodes" : [
                1
            ]
        }
    ],
    "nodes" : [
        {
            "mesh" : 0,
            "name" : "BlueSticker.011",
            "scale" : [
                0.7149612903594971,
                0.7149612903594971,
                0.7149612903594971
            ],
            "translation" : [
                -0.024658724665641785,
                0.3380821943283081,
                0.1393214464187622
            ]
        },
        {
            "children" : [
                0
            ],
            "mesh" : 1,
            "name" : "Cardboard.026"
        }
    ],
    "materials" : [
        {
            "doubleSided" : true,
            "emissiveFactor" : [
                0,
                0,
                0
            ],
            "name" : "BlueSticker",
            "pbrMetallicRoughness" : {
                "baseColorTexture" : {
                    "index" : 0,
                    "texCoord" : 0
                },
                "metallicFactor" : 0,
                "roughnessFactor" : 0.5
            }
        },
        {
            "doubleSided" : true,
            "emissiveFactor" : [
                0,
                0,
                0
            ],
            "name" : "Cardboard",
            "pbrMetallicRoughness" : {
                "baseColorFactor" : [
                    0.43854397535324097,
                    0.22114567458629608,
                    0.07486508041620255,
                    1
                ],
                "metallicFactor" : 0,
                "roughnessFactor" : 0.800000011920929
            }
        },
        {
            "doubleSided" : true,
            "emissiveFactor" : [
                0,
                0,
                0
            ],
            "name" : "CardboardTape",
            "pbrMetallicRoughness" : {
                "baseColorFactor" : [
                    0.8000000715255737,
                    0.7577246427536011,
                    0.3579860031604767,
                    1
                ],
                "metallicFactor" : 0,
                "roughnessFactor" : 0.30000001192092896
            }
        }
    ],
    "meshes" : [
        {
            "name" : "Plane.006",
            "primitives" : [
                {
                    "attributes" : {
                        "POSITION" : 0,
                        "NORMAL" : 1,
                        "TEXCOORD_0" : 2
                    },
                    "indices" : 3,
                    "material" : 0
                }
            ]
        },
        {
            "name" : "Cube.011",
            "primitives" : [
                {
                    "attributes" : {
                        "POSITION" : 4,
                        "NORMAL" : 5,
                        "TEXCOORD_0" : 6,
                        "JOINTS_0" : 7,
                        "WEIGHTS_0" : 8
                    },
                    "indices" : 9,
                    "material" : 1
                },
                {
                    "attributes" : {
                        "POSITION" : 10,
                        "NORMAL" : 11,
                        "TEXCOORD_0" : 12,
                        "JOINTS_0" : 13,
                        "WEIGHTS_0" : 14
                    },
                    "indices" : 15,
                    "material" : 2
                }
            ]
        }
    ],
    "textures" : [
        {
            "source" : 0
        }
    ],
    "images" : [
        {
            "bufferView" : 4,
            "mimeType" : "image/png",
            "name" : "BlueStickerDiffuse"
        }
    ],
    "accessors" : [
        {
            "bufferView" : 0,
            "componentType" : 5126,
            "count" : 40,
            "max" : [
                0.12000568956136703,
                0.07678252458572388,
                0.002048969268798828
            ],
            "min" : [
                -0.1200118139386177,
                -0.07678592205047607,
                0.0015561431646347046
            ],
            "type" : "VEC3"
        },
        {
            "bufferView" : 1,
            "componentType" : 5126,
            "count" : 40,
            "type" : "VEC3"
        },
        {
            "bufferView" : 2,
            "componentType" : 5126,
            "count" : 40,
            "type" : "VEC2"
        },
        {
            "bufferView" : 3,
            "componentType" : 5123,
            "count" : 60,
            "type" : "SCALAR"
        },
        {
            "bufferView" : 5,
            "componentType" : 5126,
            "count" : 655,
            "max" : [
                0.13864785432815552,
                0.5766690373420715,
                0.19320106506347656
            ],
            "min" : [
                -0.13864782452583313,
                -0.5766690373420715,
                -0.1932011842727661
            ],
            "type" : "VEC3"
        },
        {
            "bufferView" : 6,
            "componentType" : 5126,
            "count" : 655,
            "type" : "VEC3"
        },
        {
            "bufferView" : 7,
            "componentType" : 5126,
            "count" : 655,
            "type" : "VEC2"
        },
        {
            "bufferView" : 8,
            "componentType" : 5123,
            "count" : 655,
            "type" : "VEC4"
        },
        {
            "bufferView" : 9,
            "componentType" : 5126,
            "count" : 655,
            "type" : "VEC4"
        },
        {
            "bufferView" : 10,
            "componentType" : 5123,
            "count" : 1020,
            "type" : "SCALAR"
        },
        {
            "bufferView" : 11,
            "componentType" : 5126,
            "count" : 32,
            "max" : [
                0.024300813674926758,
                0.5766689777374268,
                0.19320106506347656
            ],
            "min" : [
                -0.024300068616867065,
                0.21599334478378296,
                -0.1932011842727661
            ],
            "type" : "VEC3"
        },
        {
            "bufferView" : 12,
            "componentType" : 5126,
            "count" : 32,
            "type" : "VEC3"
        },
        {
            "bufferView" : 13,
            "componentType" : 5126,
            "count" : 32,
            "type" : "VEC2"
        },
        {
            "bufferView" : 14,
            "componentType" : 5123,
            "count" : 32,
            "type" : "VEC4"
        },
        {
            "bufferView" : 15,
            "componentType" : 5126,
            "count" : 32,
            "type" : "VEC4"
        },
        {
            "bufferView" : 16,
            "componentType" : 5123,
            "count" : 48,
            "type" : "SCALAR"
        }
    ],
    "bufferViews" : [
        {
            "buffer" : 0,
            "byteLength" : 480,
            "byteOffset" : 0
        },
        {
            "buffer" : 0,
            "byteLength" : 480,
            "byteOffset" : 480
        },
        {
            "buffer" : 0,
            "byteLength" : 320,
            "byteOffset" : 960
        },
        {
            "buffer" : 0,
            "byteLength" : 120,
            "byteOffset" : 1280
        },
        {
            "buffer" : 0,
            "byteLength" : 6328,
            "byteOffset" : 1400
        },
        {
            "buffer" : 0,
            "byteLength" : 7860,
            "byteOffset" : 7728
        },
        {
            "buffer" : 0,
            "byteLength" : 7860,
            "byteOffset" : 15588
        },
        {
            "buffer" : 0,
            "byteLength" : 5240,
            "byteOffset" : 23448
        },
        {
            "buffer" : 0,
            "byteLength" : 5240,
            "byteOffset" : 28688
        },
        {
            "buffer" : 0,
            "byteLength" : 10480,
            "byteOffset" : 33928
        },
        {
            "buffer" : 0,
            "byteLength" : 2040,
            "byteOffset" : 44408
        },
        {
            "buffer" : 0,
            "byteLength" : 384,
            "byteOffset" : 46448
        },
        {
            "buffer" : 0,
            "byteLength" : 384,
            "byteOffset" : 46832
        },
        {
            "buffer" : 0,
            "byteLength" : 256,
            "byteOffset" : 47216
        },
        {
            "buffer" : 0,
            "byteLength" : 256,
            "byteOffset" : 47472
        },
        {
            "buffer" : 0,
            "byteLength" : 512,
            "byteOffset" : 47728
        },
        {
            "buffer" : 0,
            "byteLength" : 96,
            "byteOffset" : 48240
        }
    ],
    "buffers" : [
        {
            "byteLength" : 48336,
            "uri" : "data:application/octet-stream;base64,"
        }
    ]
}
