{
    "asset" : {
        "copyright" : "TheFamousRat",
        "generator" : "Khronos glTF Blender I/O v1.1.46",
        "version" : "2.0"
    },
    "scene" : 0,
    "scenes" : [
        {
            "name" : "Scene",
            "nodes" : [
                2
            ]
        }
    ],
    "nodes" : [
        {
            "mesh" : 0,
            "name" : "codeBArre.001",
            "rotation" : [
                0.5,
                0.5,
                -0.5000000596046448,
                0.4999999701976776
            ],
            "scale" : [
                0.08480924367904663,
                0.100258968770504,
                0.08480924367904663
            ],
            "translation" : [
                0.5101849436759949,
                -0.009149312973022461,
                -0.11920848488807678
            ]
        },
        {
            "mesh" : 1,
            "name" : "RedSticker",
            "rotation" : [
                0.3211168050765991,
                0.049443259835243225,
                -0.14392347633838654,
                0.9347327947616577
            ],
            "translation" : [
                0.1759151816368103,
                0.4069032669067383,
                0.545296847820282
            ]
        },
        {
            "children" : [
                0,
                1
            ],
            "mesh" : 2,
            "name" : "Cardboard.011"
        }
    ],
    "materials" : [
        {
            "alphaMode" : "BLEND",
            "doubleSided" : true,
            "emissiveFactor" : [
                0,
                0,
                0
            ],
            "name" : "codeBArre",
            "pbrMetallicRoughness" : {
                "baseColorTexture" : {
                    "index" : 0,
                    "texCoord" : 0
                },
                "metallicFactor" : 0,
                "roughnessFactor" : 0.5
            }
        },
        {
            "doubleSided" : true,
            "emissiveFactor" : [
                0,
                0,
                0
            ],
            "name" : "RedSticker",
            "pbrMetallicRoughness" : {
                "baseColorTexture" : {
                    "index" : 1,
                    "texCoord" : 0
                },
                "metallicFactor" : 0
            }
        },
        {
            "doubleSided" : true,
            "emissiveFactor" : [
                0,
                0,
                0
            ],
            "name" : "Cardboard",
            "pbrMetallicRoughness" : {
                "baseColorFactor" : [
                    0.43854397535324097,
                    0.22114567458629608,
                    0.07486508041620255,
                    1
                ],
                "metallicFactor" : 0,
                "roughnessFactor" : 0.800000011920929
            }
        },
        {
            "doubleSided" : true,
            "emissiveFactor" : [
                0,
                0,
                0
            ],
            "name" : "CardboardTape",
            "pbrMetallicRoughness" : {
                "baseColorFactor" : [
                    0.8000000715255737,
                    0.7577246427536011,
                    0.3579860031604767,
                    1
                ],
                "metallicFactor" : 0,
                "roughnessFactor" : 0.30000001192092896
            }
        }
    ],
    "meshes" : [
        {
            "name" : "codeBArre.001",
            "primitives" : [
                {
                    "attributes" : {
                        "POSITION" : 0,
                        "NORMAL" : 1,
                        "TEXCOORD_0" : 2
                    },
                    "indices" : 3,
                    "material" : 0
                }
            ]
        },
        {
            "name" : "Plane.005",
            "primitives" : [
                {
                    "attributes" : {
                        "POSITION" : 4,
                        "NORMAL" : 5,
                        "TEXCOORD_0" : 6
                    },
                    "indices" : 7,
                    "material" : 1
                }
            ]
        },
        {
            "name" : "Cube.003",
            "primitives" : [
                {
                    "attributes" : {
                        "POSITION" : 8,
                        "NORMAL" : 9,
                        "TEXCOORD_0" : 10,
                        "JOINTS_0" : 11,
                        "WEIGHTS_0" : 12
                    },
                    "indices" : 13,
                    "material" : 2
                },
                {
                    "attributes" : {
                        "POSITION" : 14,
                        "NORMAL" : 15,
                        "TEXCOORD_0" : 16,
                        "JOINTS_0" : 17,
                        "WEIGHTS_0" : 18
                    },
                    "indices" : 19,
                    "material" : 3
                }
            ]
        }
    ],
    "textures" : [
        {
            "source" : 0
        },
        {
            "source" : 1
        }
    ],
    "images" : [
        {
            "bufferView" : 4,
            "mimeType" : "image/png",
            "name" : "barcode"
        },
        {
            "bufferView" : 9,
            "mimeType" : "image/png",
            "name" : "RedStickerDiffuse"
        }
    ],
    "accessors" : [
        {
            "bufferView" : 0,
            "componentType" : 5126,
            "count" : 4,
            "max" : [
                1.111110806465149,
                -0.5870423316955566,
                0.5004143118858337
            ],
            "min" : [
                -1.1111114025115967,
                -0.587547779083252,
                -0.4995855391025543
            ],
            "type" : "VEC3"
        },
        {
            "bufferView" : 1,
            "componentType" : 5126,
            "count" : 4,
            "type" : "VEC3"
        },
        {
            "bufferView" : 2,
            "componentType" : 5126,
            "count" : 4,
            "type" : "VEC2"
        },
        {
            "bufferView" : 3,
            "componentType" : 5123,
            "count" : 6,
            "type" : "SCALAR"
        },
        {
            "bufferView" : 5,
            "componentType" : 5126,
            "count" : 40,
            "max" : [
                0.1206296980381012,
                0.0747862458229065,
                -0.03581556677818298
            ],
            "min" : [
                -0.11942331492900848,
                -0.07861089706420898,
                -0.04644937813282013
            ],
            "type" : "VEC3"
        },
        {
            "bufferView" : 6,
            "componentType" : 5126,
            "count" : 40,
            "type" : "VEC3"
        },
        {
            "bufferView" : 7,
            "componentType" : 5126,
            "count" : 40,
            "type" : "VEC2"
        },
        {
            "bufferView" : 8,
            "componentType" : 5123,
            "count" : 60,
            "type" : "SCALAR"
        },
        {
            "bufferView" : 10,
            "componentType" : 5126,
            "count" : 791,
            "max" : [
                0.8147209882736206,
                0.6020010113716125,
                0.5916898846626282
            ],
            "min" : [
                -0.8147209882736206,
                -0.6020010113716125,
                -0.5916898846626282
            ],
            "type" : "VEC3"
        },
        {
            "bufferView" : 11,
            "componentType" : 5126,
            "count" : 791,
            "type" : "VEC3"
        },
        {
            "bufferView" : 12,
            "componentType" : 5126,
            "count" : 791,
            "type" : "VEC2"
        },
        {
            "bufferView" : 13,
            "componentType" : 5123,
            "count" : 791,
            "type" : "VEC4"
        },
        {
            "bufferView" : 14,
            "componentType" : 5126,
            "count" : 791,
            "type" : "VEC4"
        },
        {
            "bufferView" : 15,
            "componentType" : 5123,
            "count" : 1200,
            "type" : "SCALAR"
        },
        {
            "bufferView" : 16,
            "componentType" : 5126,
            "count" : 120,
            "max" : [
                0.8147209882736206,
                0.5662130117416382,
                0.2305528223514557
            ],
            "min" : [
                -0.8147207498550415,
                -0.6020010113716125,
                -0.332919180393219
            ],
            "type" : "VEC3"
        },
        {
            "bufferView" : 17,
            "componentType" : 5126,
            "count" : 120,
            "type" : "VEC3"
        },
        {
            "bufferView" : 18,
            "componentType" : 5126,
            "count" : 120,
            "type" : "VEC2"
        },
        {
            "bufferView" : 19,
            "componentType" : 5123,
            "count" : 120,
            "type" : "VEC4"
        },
        {
            "bufferView" : 20,
            "componentType" : 5126,
            "count" : 120,
            "type" : "VEC4"
        },
        {
            "bufferView" : 21,
            "componentType" : 5123,
            "count" : 180,
            "type" : "SCALAR"
        }
    ],
    "bufferViews" : [
        {
            "buffer" : 0,
            "byteLength" : 48,
            "byteOffset" : 0
        },
        {
            "buffer" : 0,
            "byteLength" : 48,
            "byteOffset" : 48
        },
        {
            "buffer" : 0,
            "byteLength" : 32,
            "byteOffset" : 96
        },
        {
            "buffer" : 0,
            "byteLength" : 12,
            "byteOffset" : 128
        },
        {
            "buffer" : 0,
            "byteLength" : 1710,
            "byteOffset" : 140
        },
        {
            "buffer" : 0,
            "byteLength" : 480,
            "byteOffset" : 1852
        },
        {
            "buffer" : 0,
            "byteLength" : 480,
            "byteOffset" : 2332
        },
        {
            "buffer" : 0,
            "byteLength" : 320,
            "byteOffset" : 2812
        },
        {
            "buffer" : 0,
            "byteLength" : 120,
            "byteOffset" : 3132
        },
        {
            "buffer" : 0,
            "byteLength" : 6614,
            "byteOffset" : 3252
        },
        {
            "buffer" : 0,
            "byteLength" : 9492,
            "byteOffset" : 9868
        },
        {
            "buffer" : 0,
            "byteLength" : 9492,
            "byteOffset" : 19360
        },
        {
            "buffer" : 0,
            "byteLength" : 6328,
            "byteOffset" : 28852
        },
        {
            "buffer" : 0,
            "byteLength" : 6328,
            "byteOffset" : 35180
        },
        {
            "buffer" : 0,
            "byteLength" : 12656,
            "byteOffset" : 41508
        },
        {
            "buffer" : 0,
            "byteLength" : 2400,
            "byteOffset" : 54164
        },
        {
            "buffer" : 0,
            "byteLength" : 1440,
            "byteOffset" : 56564
        },
        {
            "buffer" : 0,
            "byteLength" : 1440,
            "byteOffset" : 58004
        },
        {
            "buffer" : 0,
            "byteLength" : 960,
            "byteOffset" : 59444
        },
        {
            "buffer" : 0,
            "byteLength" : 960,
            "byteOffset" : 60404
        },
        {
            "buffer" : 0,
            "byteLength" : 1920,
            "byteOffset" : 61364
        },
        {
            "buffer" : 0,
            "byteLength" : 360,
            "byteOffset" : 63284
        }
    ],
    "buffers" : [
        {
            "byteLength" : 63644,
            "uri" : "data:application/octet-stream;base64,"
        }
    ]
}
