{
    "asset" : {
        "copyright" : "TheFamousRat",
        "generator" : "Khronos glTF Blender I/O v1.1.46",
        "version" : "2.0"
    },
    "scene" : 0,
    "scenes" : [
        {
            "name" : "Scene",
            "nodes" : [
                2
            ]
        }
    ],
    "nodes" : [
        {
            "mesh" : 0,
            "name" : "codeBArre.015",
            "scale" : [
                0.34593695402145386,
                0.34593695402145386,
                0.34593695402145386
            ],
            "translation" : [
                -2.3919591903686523,
                -0.17466922104358673,
                0
            ]
        },
        {
            "mesh" : 1,
            "name" : "RedSticker.012",
            "scale" : [
                3.6735522747039795,
                3.6735522747039795,
                3.6735525131225586
            ],
            "translation" : [
                -2.3919591903686523,
                -0.17466922104358673,
                0
            ]
        },
        {
            "children" : [
                0,
                1
            ],
            "mesh" : 2,
            "name" : "Cardboard.030",
            "scale" : [
                0.22725100815296173,
                0.22725100815296173,
                0.22725100815296173
            ]
        }
    ],
    "materials" : [
        {
            "alphaMode" : "BLEND",
            "doubleSided" : true,
            "emissiveFactor" : [
                0,
                0,
                0
            ],
            "name" : "codeBArre",
            "pbrMetallicRoughness" : {
                "baseColorTexture" : {
                    "index" : 0,
                    "texCoord" : 0
                },
                "metallicFactor" : 0,
                "roughnessFactor" : 0.5
            }
        },
        {
            "doubleSided" : true,
            "emissiveFactor" : [
                0,
                0,
                0
            ],
            "name" : "RedSticker",
            "pbrMetallicRoughness" : {
                "baseColorTexture" : {
                    "index" : 1,
                    "texCoord" : 0
                },
                "metallicFactor" : 0
            }
        },
        {
            "doubleSided" : true,
            "emissiveFactor" : [
                0,
                0,
                0
            ],
            "name" : "Cardboard",
            "pbrMetallicRoughness" : {
                "baseColorFactor" : [
                    0.43854397535324097,
                    0.22114567458629608,
                    0.07486508041620255,
                    1
                ],
                "metallicFactor" : 0,
                "roughnessFactor" : 0.800000011920929
            }
        },
        {
            "doubleSided" : true,
            "emissiveFactor" : [
                0,
                0,
                0
            ],
            "name" : "CardboardTape",
            "pbrMetallicRoughness" : {
                "baseColorFactor" : [
                    0.8000000715255737,
                    0.7577246427536011,
                    0.3579860031604767,
                    1
                ],
                "metallicFactor" : 0,
                "roughnessFactor" : 0.30000001192092896
            }
        }
    ],
    "meshes" : [
        {
            "name" : "codeBArre.019",
            "primitives" : [
                {
                    "attributes" : {
                        "POSITION" : 0,
                        "NORMAL" : 1,
                        "TEXCOORD_0" : 2
                    },
                    "indices" : 3,
                    "material" : 0
                }
            ]
        },
        {
            "name" : "Plane.034",
            "primitives" : [
                {
                    "attributes" : {
                        "POSITION" : 4,
                        "NORMAL" : 5,
                        "TEXCOORD_0" : 6
                    },
                    "indices" : 7,
                    "material" : 1
                }
            ]
        },
        {
            "name" : "Cube.039",
            "primitives" : [
                {
                    "attributes" : {
                        "POSITION" : 8,
                        "NORMAL" : 9,
                        "TEXCOORD_0" : 10
                    },
                    "indices" : 11,
                    "material" : 2
                },
                {
                    "attributes" : {
                        "POSITION" : 12,
                        "NORMAL" : 13,
                        "TEXCOORD_0" : 14
                    },
                    "indices" : 15,
                    "material" : 3
                }
            ]
        }
    ],
    "textures" : [
        {
            "source" : 0
        },
        {
            "source" : 1
        }
    ],
    "images" : [
        {
            "bufferView" : 4,
            "mimeType" : "image/png",
            "name" : "barcode"
        },
        {
            "bufferView" : 9,
            "mimeType" : "image/png",
            "name" : "RedStickerDiffuse"
        }
    ],
    "accessors" : [
        {
            "bufferView" : 0,
            "componentType" : 5126,
            "count" : 4,
            "max" : [
                3.866236925125122,
                0.8205224275588989,
                0.5000000596046448
            ],
            "min" : [
                3.8659920692443848,
                0.8194607496261597,
                -0.5000000596046448
            ],
            "type" : "VEC3"
        },
        {
            "bufferView" : 1,
            "componentType" : 5126,
            "count" : 4,
            "type" : "VEC3"
        },
        {
            "bufferView" : 2,
            "componentType" : 5126,
            "count" : 4,
            "type" : "VEC2"
        },
        {
            "bufferView" : 3,
            "componentType" : 5123,
            "count" : 6,
            "type" : "SCALAR"
        },
        {
            "bufferView" : 5,
            "componentType" : 5126,
            "count" : 33,
            "max" : [
                0.3780970573425293,
                0.07740005850791931,
                0
            ],
            "min" : [
                0.364048033952713,
                -0.07678252458572388,
                0
            ],
            "type" : "VEC3"
        },
        {
            "bufferView" : 6,
            "componentType" : 5126,
            "count" : 33,
            "type" : "VEC3"
        },
        {
            "bufferView" : 7,
            "componentType" : 5126,
            "count" : 33,
            "type" : "VEC2"
        },
        {
            "bufferView" : 8,
            "componentType" : 5123,
            "count" : 51,
            "type" : "SCALAR"
        },
        {
            "bufferView" : 10,
            "componentType" : 5126,
            "count" : 578,
            "max" : [
                1.051609754562378,
                0.5456033945083618,
                1.051609754562378
            ],
            "min" : [
                -1.051609754562378,
                -1,
                -1.051609754562378
            ],
            "type" : "VEC3"
        },
        {
            "bufferView" : 11,
            "componentType" : 5126,
            "count" : 578,
            "type" : "VEC3"
        },
        {
            "bufferView" : 12,
            "componentType" : 5126,
            "count" : 578,
            "type" : "VEC2"
        },
        {
            "bufferView" : 13,
            "componentType" : 5123,
            "count" : 864,
            "type" : "SCALAR"
        },
        {
            "bufferView" : 14,
            "componentType" : 5126,
            "count" : 112,
            "max" : [
                0.12479102611541748,
                0.5456033945083618,
                1.051609754562378
            ],
            "min" : [
                -0.12479021400213242,
                -1,
                -1.051609754562378
            ],
            "type" : "VEC3"
        },
        {
            "bufferView" : 15,
            "componentType" : 5126,
            "count" : 112,
            "type" : "VEC3"
        },
        {
            "bufferView" : 16,
            "componentType" : 5126,
            "count" : 112,
            "type" : "VEC2"
        },
        {
            "bufferView" : 17,
            "componentType" : 5123,
            "count" : 168,
            "type" : "SCALAR"
        }
    ],
    "bufferViews" : [
        {
            "buffer" : 0,
            "byteLength" : 48,
            "byteOffset" : 0
        },
        {
            "buffer" : 0,
            "byteLength" : 48,
            "byteOffset" : 48
        },
        {
            "buffer" : 0,
            "byteLength" : 32,
            "byteOffset" : 96
        },
        {
            "buffer" : 0,
            "byteLength" : 12,
            "byteOffset" : 128
        },
        {
            "buffer" : 0,
            "byteLength" : 1710,
            "byteOffset" : 140
        },
        {
            "buffer" : 0,
            "byteLength" : 396,
            "byteOffset" : 1852
        },
        {
            "buffer" : 0,
            "byteLength" : 396,
            "byteOffset" : 2248
        },
        {
            "buffer" : 0,
            "byteLength" : 264,
            "byteOffset" : 2644
        },
        {
            "buffer" : 0,
            "byteLength" : 102,
            "byteOffset" : 2908
        },
        {
            "buffer" : 0,
            "byteLength" : 6614,
            "byteOffset" : 3012
        },
        {
            "buffer" : 0,
            "byteLength" : 6936,
            "byteOffset" : 9628
        },
        {
            "buffer" : 0,
            "byteLength" : 6936,
            "byteOffset" : 16564
        },
        {
            "buffer" : 0,
            "byteLength" : 4624,
            "byteOffset" : 23500
        },
        {
            "buffer" : 0,
            "byteLength" : 1728,
            "byteOffset" : 28124
        },
        {
            "buffer" : 0,
            "byteLength" : 1344,
            "byteOffset" : 29852
        },
        {
            "buffer" : 0,
            "byteLength" : 1344,
            "byteOffset" : 31196
        },
        {
            "buffer" : 0,
            "byteLength" : 896,
            "byteOffset" : 32540
        },
        {
            "buffer" : 0,
            "byteLength" : 336,
            "byteOffset" : 33436
        }
    ],
    "buffers" : [
        {
            "byteLength" : 33772,
            "uri" : "data:application/octet-stream;base64,"
        }
    ]
}
