{
    "asset" : {
        "copyright" : "TheFamousRat",
        "generator" : "Khronos glTF Blender I/O v1.1.46",
        "version" : "2.0"
    },
    "scene" : 0,
    "scenes" : [
        {
            "name" : "Scene",
            "nodes" : [
                3
            ]
        }
    ],
    "nodes" : [
        {
            "mesh" : 0,
            "name" : "BlueSticker.012",
            "rotation" : [
                0.24937359988689423,
                -0.8863978385925293,
                0.3754401206970215,
                0.10562382638454437
            ],
            "scale" : [
                0.6085029244422913,
                0.6085030436515808,
                0.608502984046936
            ],
            "translation" : [
                0.12199116498231888,
                0.257196843624115,
                -0.44232234358787537
            ]
        },
        {
            "mesh" : 1,
            "name" : "sign2.018",
            "rotation" : [
                0.43151217699050903,
                0.4315120577812195,
                -0.5601761341094971,
                0.5601762533187866
            ],
            "scale" : [
                0.14666993916034698,
                0.14666993916034698,
                0.14666993916034698
            ],
            "translation" : [
                0.2950454354286194,
                0.1242520660161972,
                0.12824667990207672
            ]
        },
        {
            "mesh" : 2,
            "name" : "sign4.013",
            "rotation" : [
                0.43151217699050903,
                0.4315120577812195,
                -0.5601761341094971,
                0.5601762533187866
            ],
            "scale" : [
                0.14666993916034698,
                0.14666993916034698,
                0.14666993916034698
            ],
            "translation" : [
                0.29504549503326416,
                0.08271657675504684,
                -0.029127854853868484
            ]
        },
        {
            "children" : [
                0,
                1,
                2
            ],
            "mesh" : 3,
            "name" : "Cardboard.027",
            "scale" : [
                0.7610931396484375,
                0.7610931396484375,
                0.7610931396484375
            ]
        }
    ],
    "materials" : [
        {
            "doubleSided" : true,
            "emissiveFactor" : [
                0,
                0,
                0
            ],
            "name" : "BlueSticker",
            "pbrMetallicRoughness" : {
                "baseColorTexture" : {
                    "index" : 0,
                    "texCoord" : 0
                },
                "metallicFactor" : 0,
                "roughnessFactor" : 0.5
            }
        },
        {
            "alphaMode" : "BLEND",
            "doubleSided" : true,
            "emissiveFactor" : [
                0,
                0,
                0
            ],
            "name" : "sign2",
            "pbrMetallicRoughness" : {
                "baseColorTexture" : {
                    "index" : 1,
                    "texCoord" : 0
                },
                "metallicFactor" : 0,
                "roughnessFactor" : 0.5
            }
        },
        {
            "alphaMode" : "BLEND",
            "doubleSided" : true,
            "emissiveFactor" : [
                0,
                0,
                0
            ],
            "name" : "sign4",
            "pbrMetallicRoughness" : {
                "baseColorTexture" : {
                    "index" : 2,
                    "texCoord" : 0
                },
                "metallicFactor" : 0
            }
        },
        {
            "doubleSided" : true,
            "emissiveFactor" : [
                0,
                0,
                0
            ],
            "name" : "Cardboard",
            "pbrMetallicRoughness" : {
                "baseColorFactor" : [
                    0.43854397535324097,
                    0.22114567458629608,
                    0.07486508041620255,
                    1
                ],
                "metallicFactor" : 0,
                "roughnessFactor" : 0.800000011920929
            }
        },
        {
            "doubleSided" : true,
            "emissiveFactor" : [
                0,
                0,
                0
            ],
            "name" : "CardboardTape",
            "pbrMetallicRoughness" : {
                "baseColorFactor" : [
                    0.8000000715255737,
                    0.7577246427536011,
                    0.3579860031604767,
                    1
                ],
                "metallicFactor" : 0,
                "roughnessFactor" : 0.30000001192092896
            }
        }
    ],
    "meshes" : [
        {
            "name" : "Plane.008",
            "primitives" : [
                {
                    "attributes" : {
                        "POSITION" : 0,
                        "NORMAL" : 1,
                        "TEXCOORD_0" : 2
                    },
                    "indices" : 3,
                    "material" : 0
                }
            ]
        },
        {
            "name" : "sign2.012",
            "primitives" : [
                {
                    "attributes" : {
                        "POSITION" : 4,
                        "NORMAL" : 5,
                        "TEXCOORD_0" : 6
                    },
                    "indices" : 7,
                    "material" : 1
                }
            ]
        },
        {
            "name" : "sign4.009",
            "primitives" : [
                {
                    "attributes" : {
                        "POSITION" : 8,
                        "NORMAL" : 9,
                        "TEXCOORD_0" : 10
                    },
                    "indices" : 7,
                    "material" : 2
                }
            ]
        },
        {
            "name" : "Cube.012",
            "primitives" : [
                {
                    "attributes" : {
                        "POSITION" : 11,
                        "NORMAL" : 12,
                        "TEXCOORD_0" : 13,
                        "JOINTS_0" : 14,
                        "WEIGHTS_0" : 15
                    },
                    "indices" : 16,
                    "material" : 3
                },
                {
                    "attributes" : {
                        "POSITION" : 17,
                        "NORMAL" : 18,
                        "TEXCOORD_0" : 19,
                        "JOINTS_0" : 20,
                        "WEIGHTS_0" : 21
                    },
                    "indices" : 22,
                    "material" : 4
                }
            ]
        }
    ],
    "textures" : [
        {
            "source" : 0
        },
        {
            "source" : 1
        },
        {
            "source" : 2
        }
    ],
    "images" : [
        {
            "bufferView" : 4,
            "mimeType" : "image/png",
            "name" : "BlueStickerDiffuse"
        },
        {
            "bufferView" : 9,
            "mimeType" : "image/png",
            "name" : "sign2"
        },
        {
            "bufferView" : 13,
            "mimeType" : "image/png",
            "name" : "sign4"
        }
    ],
    "accessors" : [
        {
            "bufferView" : 0,
            "componentType" : 5126,
            "count" : 40,
            "max" : [
                0.1127617359161377,
                0.08862870931625366,
                -0.16433259844779968
            ],
            "min" : [
                -0.12725776433944702,
                -0.06490451097488403,
                -0.18461444973945618
            ],
            "type" : "VEC3"
        },
        {
            "bufferView" : 1,
            "componentType" : 5126,
            "count" : 40,
            "type" : "VEC3"
        },
        {
            "bufferView" : 2,
            "componentType" : 5126,
            "count" : 40,
            "type" : "VEC2"
        },
        {
            "bufferView" : 3,
            "componentType" : 5123,
            "count" : 60,
            "type" : "SCALAR"
        },
        {
            "bufferView" : 5,
            "componentType" : 5126,
            "count" : 4,
            "max" : [
                0.4978930950164795,
                -0.23755812644958496,
                0.49124419689178467
            ],
            "min" : [
                -0.5023109912872314,
                -0.2785067558288574,
                -0.5079823732376099
            ],
            "type" : "VEC3"
        },
        {
            "bufferView" : 6,
            "componentType" : 5126,
            "count" : 4,
            "type" : "VEC3"
        },
        {
            "bufferView" : 7,
            "componentType" : 5126,
            "count" : 4,
            "type" : "VEC2"
        },
        {
            "bufferView" : 8,
            "componentType" : 5123,
            "count" : 6,
            "type" : "SCALAR"
        },
        {
            "bufferView" : 10,
            "componentType" : 5126,
            "count" : 4,
            "max" : [
                0.49977219104766846,
                -0.2470475435256958,
                0.4991360902786255
            ],
            "min" : [
                -0.502392053604126,
                -0.28693246841430664,
                -0.5082900524139404
            ],
            "type" : "VEC3"
        },
        {
            "bufferView" : 11,
            "componentType" : 5126,
            "count" : 4,
            "type" : "VEC3"
        },
        {
            "bufferView" : 12,
            "componentType" : 5126,
            "count" : 4,
            "type" : "VEC2"
        },
        {
            "bufferView" : 14,
            "componentType" : 5126,
            "count" : 588,
            "max" : [
                0.39788150787353516,
                0.41078484058380127,
                0.43607279658317566
            ],
            "min" : [
                -0.39788150787353516,
                -0.2500000298023224,
                -0.4360727369785309
            ],
            "type" : "VEC3"
        },
        {
            "bufferView" : 15,
            "componentType" : 5126,
            "count" : 588,
            "type" : "VEC3"
        },
        {
            "bufferView" : 16,
            "componentType" : 5126,
            "count" : 588,
            "type" : "VEC2"
        },
        {
            "bufferView" : 17,
            "componentType" : 5123,
            "count" : 588,
            "type" : "VEC4"
        },
        {
            "bufferView" : 18,
            "componentType" : 5126,
            "count" : 588,
            "type" : "VEC4"
        },
        {
            "bufferView" : 19,
            "componentType" : 5123,
            "count" : 888,
            "type" : "SCALAR"
        },
        {
            "bufferView" : 20,
            "componentType" : 5126,
            "count" : 32,
            "max" : [
                0.04561185836791992,
                0.4107847511768341,
                0.4360727369785309
            ],
            "min" : [
                -0.04561186581850052,
                0,
                -0.4360727369785309
            ],
            "type" : "VEC3"
        },
        {
            "bufferView" : 21,
            "componentType" : 5126,
            "count" : 32,
            "type" : "VEC3"
        },
        {
            "bufferView" : 22,
            "componentType" : 5126,
            "count" : 32,
            "type" : "VEC2"
        },
        {
            "bufferView" : 23,
            "componentType" : 5123,
            "count" : 32,
            "type" : "VEC4"
        },
        {
            "bufferView" : 24,
            "componentType" : 5126,
            "count" : 32,
            "type" : "VEC4"
        },
        {
            "bufferView" : 25,
            "componentType" : 5123,
            "count" : 48,
            "type" : "SCALAR"
        }
    ],
    "bufferViews" : [
        {
            "buffer" : 0,
            "byteLength" : 480,
            "byteOffset" : 0
        },
        {
            "buffer" : 0,
            "byteLength" : 480,
            "byteOffset" : 480
        },
        {
            "buffer" : 0,
            "byteLength" : 320,
            "byteOffset" : 960
        },
        {
            "buffer" : 0,
            "byteLength" : 120,
            "byteOffset" : 1280
        },
        {
            "buffer" : 0,
            "byteLength" : 6328,
            "byteOffset" : 1400
        },
        {
            "buffer" : 0,
            "byteLength" : 48,
            "byteOffset" : 7728
        },
        {
            "buffer" : 0,
            "byteLength" : 48,
            "byteOffset" : 7776
        },
        {
            "buffer" : 0,
            "byteLength" : 32,
            "byteOffset" : 7824
        },
        {
            "buffer" : 0,
            "byteLength" : 12,
            "byteOffset" : 7856
        },
        {
            "buffer" : 0,
            "byteLength" : 10871,
            "byteOffset" : 7868
        },
        {
            "buffer" : 0,
            "byteLength" : 48,
            "byteOffset" : 18740
        },
        {
            "buffer" : 0,
            "byteLength" : 48,
            "byteOffset" : 18788
        },
        {
            "buffer" : 0,
            "byteLength" : 32,
            "byteOffset" : 18836
        },
        {
            "buffer" : 0,
            "byteLength" : 16393,
            "byteOffset" : 18868
        },
        {
            "buffer" : 0,
            "byteLength" : 7056,
            "byteOffset" : 35264
        },
        {
            "buffer" : 0,
            "byteLength" : 7056,
            "byteOffset" : 42320
        },
        {
            "buffer" : 0,
            "byteLength" : 4704,
            "byteOffset" : 49376
        },
        {
            "buffer" : 0,
            "byteLength" : 4704,
            "byteOffset" : 54080
        },
        {
            "buffer" : 0,
            "byteLength" : 9408,
            "byteOffset" : 58784
        },
        {
            "buffer" : 0,
            "byteLength" : 1776,
            "byteOffset" : 68192
        },
        {
            "buffer" : 0,
            "byteLength" : 384,
            "byteOffset" : 69968
        },
        {
            "buffer" : 0,
            "byteLength" : 384,
            "byteOffset" : 70352
        },
        {
            "buffer" : 0,
            "byteLength" : 256,
            "byteOffset" : 70736
        },
        {
            "buffer" : 0,
            "byteLength" : 256,
            "byteOffset" : 70992
        },
        {
            "buffer" : 0,
            "byteLength" : 512,
            "byteOffset" : 71248
        },
        {
            "buffer" : 0,
            "byteLength" : 96,
            "byteOffset" : 71760
        }
    ],
    "buffers" : [
        {
            "byteLength" : 71856,
            "uri" : "data:application/octet-stream;base64,"
        }
    ]
}
