{
    "asset" : {
        "copyright" : "TheFamousRat",
        "generator" : "Khronos glTF Blender I/O v1.1.46",
        "version" : "2.0"
    },
    "scene" : 0,
    "scenes" : [
        {
            "name" : "Scene",
            "nodes" : [
                3
            ]
        }
    ],
    "nodes" : [
        {
            "mesh" : 0,
            "name" : "codeBArre.014",
            "rotation" : [
                0.7071068286895752,
                0,
                0,
                0.7071068286895752
            ],
            "scale" : [
                0.10329160839319229,
                0.10329160839319229,
                0.10329160839319229
            ],
            "translation" : [
                -0.19130170345306396,
                0.12485813349485397,
                0.25235888361930847
            ]
        },
        {
            "mesh" : 1,
            "name" : "sign2.015",
            "rotation" : [
                0,
                -0.10318970680236816,
                0,
                0.9946616888046265
            ],
            "scale" : [
                0.14112484455108643,
                0.14112485945224762,
                0.14112484455108643
            ],
            "translation" : [
                0.08569004386663437,
                0.2885344624519348,
                0.10376634448766708
            ]
        },
        {
            "mesh" : 2,
            "name" : "sign4.011",
            "rotation" : [
                0,
                -0.10318970680236816,
                0,
                0.9946616888046265
            ],
            "scale" : [
                0.14112484455108643,
                0.14112485945224762,
                0.14112484455108643
            ],
            "translation" : [
                0.24789024889469147,
                0.2885344624519348,
                0.1377868950366974
            ]
        },
        {
            "children" : [
                0,
                1,
                2
            ],
            "mesh" : 3,
            "name" : "Cardboard.021",
            "rotation" : [
                0,
                0.7071067690849304,
                0,
                0.7071068286895752
            ],
            "scale" : [
                0.7610931396484375,
                0.7610931396484375,
                0.7610931396484375
            ]
        }
    ],
    "materials" : [
        {
            "alphaMode" : "BLEND",
            "doubleSided" : true,
            "emissiveFactor" : [
                0,
                0,
                0
            ],
            "name" : "codeBArre",
            "pbrMetallicRoughness" : {
                "baseColorTexture" : {
                    "index" : 0,
                    "texCoord" : 0
                },
                "metallicFactor" : 0,
                "roughnessFactor" : 0.5
            }
        },
        {
            "alphaMode" : "BLEND",
            "doubleSided" : true,
            "emissiveFactor" : [
                0,
                0,
                0
            ],
            "name" : "sign2",
            "pbrMetallicRoughness" : {
                "baseColorTexture" : {
                    "index" : 1,
                    "texCoord" : 0
                },
                "metallicFactor" : 0,
                "roughnessFactor" : 0.5
            }
        },
        {
            "alphaMode" : "BLEND",
            "doubleSided" : true,
            "emissiveFactor" : [
                0,
                0,
                0
            ],
            "name" : "sign4",
            "pbrMetallicRoughness" : {
                "baseColorTexture" : {
                    "index" : 2,
                    "texCoord" : 0
                },
                "metallicFactor" : 0
            }
        },
        {
            "doubleSided" : true,
            "emissiveFactor" : [
                0,
                0,
                0
            ],
            "name" : "Cardboard",
            "pbrMetallicRoughness" : {
                "baseColorFactor" : [
                    0.43854397535324097,
                    0.22114567458629608,
                    0.07486508041620255,
                    1
                ],
                "metallicFactor" : 0,
                "roughnessFactor" : 0.800000011920929
            }
        },
        {
            "doubleSided" : true,
            "emissiveFactor" : [
                0,
                0,
                0
            ],
            "name" : "CardboardTape",
            "pbrMetallicRoughness" : {
                "baseColorFactor" : [
                    0.8000000715255737,
                    0.7577246427536011,
                    0.3579860031604767,
                    1
                ],
                "metallicFactor" : 0,
                "roughnessFactor" : 0.30000001192092896
            }
        }
    ],
    "meshes" : [
        {
            "name" : "codeBArre.009",
            "primitives" : [
                {
                    "attributes" : {
                        "POSITION" : 0,
                        "NORMAL" : 1,
                        "TEXCOORD_0" : 2
                    },
                    "indices" : 3,
                    "material" : 0
                }
            ]
        },
        {
            "name" : "sign2.002",
            "primitives" : [
                {
                    "attributes" : {
                        "POSITION" : 4,
                        "NORMAL" : 5,
                        "TEXCOORD_0" : 6
                    },
                    "indices" : 7,
                    "material" : 1
                }
            ]
        },
        {
            "name" : "sign4.008",
            "primitives" : [
                {
                    "attributes" : {
                        "POSITION" : 8,
                        "NORMAL" : 9,
                        "TEXCOORD_0" : 10
                    },
                    "indices" : 7,
                    "material" : 2
                }
            ]
        },
        {
            "name" : "Cube.008",
            "primitives" : [
                {
                    "attributes" : {
                        "POSITION" : 11,
                        "NORMAL" : 12,
                        "TEXCOORD_0" : 13,
                        "JOINTS_0" : 14,
                        "WEIGHTS_0" : 15
                    },
                    "indices" : 16,
                    "material" : 3
                },
                {
                    "attributes" : {
                        "POSITION" : 17,
                        "NORMAL" : 18,
                        "TEXCOORD_0" : 19,
                        "JOINTS_0" : 20,
                        "WEIGHTS_0" : 21
                    },
                    "indices" : 22,
                    "material" : 4
                }
            ]
        }
    ],
    "textures" : [
        {
            "source" : 0
        },
        {
            "source" : 1
        },
        {
            "source" : 2
        }
    ],
    "images" : [
        {
            "bufferView" : 4,
            "mimeType" : "image/png",
            "name" : "barcode"
        },
        {
            "bufferView" : 9,
            "mimeType" : "image/png",
            "name" : "sign2"
        },
        {
            "bufferView" : 13,
            "mimeType" : "image/png",
            "name" : "sign4"
        }
    ],
    "accessors" : [
        {
            "bufferView" : 0,
            "componentType" : 5126,
            "count" : 4,
            "max" : [
                1.111114263534546,
                0.002689361572265625,
                0.5000088214874268
            ],
            "min" : [
                -1.1111067533493042,
                -0.006218671798706055,
                -0.49999451637268066
            ],
            "type" : "VEC3"
        },
        {
            "bufferView" : 1,
            "componentType" : 5126,
            "count" : 4,
            "type" : "VEC3"
        },
        {
            "bufferView" : 2,
            "componentType" : 5126,
            "count" : 4,
            "type" : "VEC2"
        },
        {
            "bufferView" : 3,
            "componentType" : 5123,
            "count" : 6,
            "type" : "SCALAR"
        },
        {
            "bufferView" : 5,
            "componentType" : 5126,
            "count" : 4,
            "max" : [
                0.4995182156562805,
                -0.20192670822143555,
                0.4976036548614502
            ],
            "min" : [
                -0.5005027651786804,
                -0.21552109718322754,
                -0.5022958517074585
            ],
            "type" : "VEC3"
        },
        {
            "bufferView" : 6,
            "componentType" : 5126,
            "count" : 4,
            "type" : "VEC3"
        },
        {
            "bufferView" : 7,
            "componentType" : 5126,
            "count" : 4,
            "type" : "VEC2"
        },
        {
            "bufferView" : 8,
            "componentType" : 5123,
            "count" : 6,
            "type" : "SCALAR"
        },
        {
            "bufferView" : 10,
            "componentType" : 5126,
            "count" : 4,
            "max" : [
                0.4995119571685791,
                -0.20469462871551514,
                0.4975731372833252
            ],
            "min" : [
                -0.5005089044570923,
                -0.21828889846801758,
                -0.5023269653320312
            ],
            "type" : "VEC3"
        },
        {
            "bufferView" : 11,
            "componentType" : 5126,
            "count" : 4,
            "type" : "VEC3"
        },
        {
            "bufferView" : 12,
            "componentType" : 5126,
            "count" : 4,
            "type" : "VEC2"
        },
        {
            "bufferView" : 14,
            "componentType" : 5126,
            "count" : 702,
            "max" : [
                0.3832920789718628,
                0.2572580575942993,
                0.2533152997493744
            ],
            "min" : [
                -0.38329213857650757,
                -0.2500000298023224,
                -0.25331512093544006
            ],
            "type" : "VEC3"
        },
        {
            "bufferView" : 15,
            "componentType" : 5126,
            "count" : 702,
            "type" : "VEC3"
        },
        {
            "bufferView" : 16,
            "componentType" : 5126,
            "count" : 702,
            "type" : "VEC2"
        },
        {
            "bufferView" : 17,
            "componentType" : 5123,
            "count" : 702,
            "type" : "VEC4"
        },
        {
            "bufferView" : 18,
            "componentType" : 5126,
            "count" : 702,
            "type" : "VEC4"
        },
        {
            "bufferView" : 19,
            "componentType" : 5123,
            "count" : 1068,
            "type" : "SCALAR"
        },
        {
            "bufferView" : 20,
            "componentType" : 5126,
            "count" : 142,
            "max" : [
                0.04561182111501694,
                0.25725802779197693,
                0.2533153295516968
            ],
            "min" : [
                -0.0456119030714035,
                0,
                -0.2533150911331177
            ],
            "type" : "VEC3"
        },
        {
            "bufferView" : 21,
            "componentType" : 5126,
            "count" : 142,
            "type" : "VEC3"
        },
        {
            "bufferView" : 22,
            "componentType" : 5126,
            "count" : 142,
            "type" : "VEC2"
        },
        {
            "bufferView" : 23,
            "componentType" : 5123,
            "count" : 142,
            "type" : "VEC4"
        },
        {
            "bufferView" : 24,
            "componentType" : 5126,
            "count" : 142,
            "type" : "VEC4"
        },
        {
            "bufferView" : 25,
            "componentType" : 5123,
            "count" : 216,
            "type" : "SCALAR"
        }
    ],
    "bufferViews" : [
        {
            "buffer" : 0,
            "byteLength" : 48,
            "byteOffset" : 0
        },
        {
            "buffer" : 0,
            "byteLength" : 48,
            "byteOffset" : 48
        },
        {
            "buffer" : 0,
            "byteLength" : 32,
            "byteOffset" : 96
        },
        {
            "buffer" : 0,
            "byteLength" : 12,
            "byteOffset" : 128
        },
        {
            "buffer" : 0,
            "byteLength" : 1710,
            "byteOffset" : 140
        },
        {
            "buffer" : 0,
            "byteLength" : 48,
            "byteOffset" : 1852
        },
        {
            "buffer" : 0,
            "byteLength" : 48,
            "byteOffset" : 1900
        },
        {
            "buffer" : 0,
            "byteLength" : 32,
            "byteOffset" : 1948
        },
        {
            "buffer" : 0,
            "byteLength" : 12,
            "byteOffset" : 1980
        },
        {
            "buffer" : 0,
            "byteLength" : 10871,
            "byteOffset" : 1992
        },
        {
            "buffer" : 0,
            "byteLength" : 48,
            "byteOffset" : 12864
        },
        {
            "buffer" : 0,
            "byteLength" : 48,
            "byteOffset" : 12912
        },
        {
            "buffer" : 0,
            "byteLength" : 32,
            "byteOffset" : 12960
        },
        {
            "buffer" : 0,
            "byteLength" : 16393,
            "byteOffset" : 12992
        },
        {
            "buffer" : 0,
            "byteLength" : 8424,
            "byteOffset" : 29388
        },
        {
            "buffer" : 0,
            "byteLength" : 8424,
            "byteOffset" : 37812
        },
        {
            "buffer" : 0,
            "byteLength" : 5616,
            "byteOffset" : 46236
        },
        {
            "buffer" : 0,
            "byteLength" : 5616,
            "byteOffset" : 51852
        },
        {
            "buffer" : 0,
            "byteLength" : 11232,
            "byteOffset" : 57468
        },
        {
            "buffer" : 0,
            "byteLength" : 2136,
            "byteOffset" : 68700
        },
        {
            "buffer" : 0,
            "byteLength" : 1704,
            "byteOffset" : 70836
        },
        {
            "buffer" : 0,
            "byteLength" : 1704,
            "byteOffset" : 72540
        },
        {
            "buffer" : 0,
            "byteLength" : 1136,
            "byteOffset" : 74244
        },
        {
            "buffer" : 0,
            "byteLength" : 1136,
            "byteOffset" : 75380
        },
        {
            "buffer" : 0,
            "byteLength" : 2272,
            "byteOffset" : 76516
        },
        {
            "buffer" : 0,
            "byteLength" : 432,
            "byteOffset" : 78788
        }
    ],
    "buffers" : [
        {
            "byteLength" : 79220,
            "uri" : "data:application/octet-stream;base64,"
        }
    ]
}
