{
    "asset" : {
        "copyright" : "TheFamousRat",
        "generator" : "Khronos glTF Blender I/O v1.1.46",
        "version" : "2.0"
    },
    "scene" : 0,
    "scenes" : [
        {
            "name" : "Scene",
            "nodes" : [
                3
            ]
        }
    ],
    "nodes" : [
        {
            "mesh" : 0,
            "name" : "BlueSticker.007",
            "rotation" : [
                0.04759647324681282,
                0.983169436454773,
                0.17618106305599213,
                -0.00852919276803732
            ],
            "scale" : [
                0.7103021144866943,
                0.71030193567276,
                0.71030193567276
            ],
            "translation" : [
                -0.07002651691436768,
                0.17994430661201477,
                0.3668884038925171
            ]
        },
        {
            "mesh" : 1,
            "name" : "codeBArre.009",
            "rotation" : [
                0.5000000596046448,
                0.5,
                -0.5,
                0.5000000596046448
            ],
            "scale" : [
                0.07861451804637909,
                0.07861451804637909,
                0.07861451804637909
            ],
            "translation" : [
                -0.19270920753479004,
                -0.11642356961965561,
                0.11348295211791992
            ]
        },
        {
            "mesh" : 2,
            "name" : "sign4.008",
            "rotation" : [
                0,
                0.7071068286895752,
                -0.7071068286895752,
                2.1774944514163508e-08
            ],
            "scale" : [
                0.1469152867794037,
                0.1469152867794037,
                0.1469152867794037
            ],
            "translation" : [
                -0.04168945550918579,
                -0.09864753484725952,
                -0.34211719036102295
            ]
        },
        {
            "children" : [
                0,
                1,
                2
            ],
            "mesh" : 3,
            "name" : "Cardboard.014"
        }
    ],
    "materials" : [
        {
            "doubleSided" : true,
            "emissiveFactor" : [
                0,
                0,
                0
            ],
            "name" : "BlueSticker",
            "pbrMetallicRoughness" : {
                "baseColorTexture" : {
                    "index" : 0,
                    "texCoord" : 0
                },
                "metallicFactor" : 0,
                "roughnessFactor" : 0.5
            }
        },
        {
            "alphaMode" : "BLEND",
            "doubleSided" : true,
            "emissiveFactor" : [
                0,
                0,
                0
            ],
            "name" : "codeBArre",
            "pbrMetallicRoughness" : {
                "baseColorTexture" : {
                    "index" : 1,
                    "texCoord" : 0
                },
                "metallicFactor" : 0,
                "roughnessFactor" : 0.5
            }
        },
        {
            "alphaMode" : "BLEND",
            "doubleSided" : true,
            "emissiveFactor" : [
                0,
                0,
                0
            ],
            "name" : "sign4",
            "pbrMetallicRoughness" : {
                "baseColorTexture" : {
                    "index" : 2,
                    "texCoord" : 0
                },
                "metallicFactor" : 0
            }
        },
        {
            "doubleSided" : true,
            "emissiveFactor" : [
                0,
                0,
                0
            ],
            "name" : "Cardboard",
            "pbrMetallicRoughness" : {
                "baseColorFactor" : [
                    0.43854397535324097,
                    0.22114567458629608,
                    0.07486508041620255,
                    1
                ],
                "metallicFactor" : 0,
                "roughnessFactor" : 0.800000011920929
            }
        },
        {
            "doubleSided" : true,
            "emissiveFactor" : [
                0,
                0,
                0
            ],
            "name" : "CardboardTape",
            "pbrMetallicRoughness" : {
                "baseColorFactor" : [
                    0.8000000715255737,
                    0.7577246427536011,
                    0.3579860031604767,
                    1
                ],
                "metallicFactor" : 0,
                "roughnessFactor" : 0.30000001192092896
            }
        }
    ],
    "meshes" : [
        {
            "name" : "Plane.018",
            "primitives" : [
                {
                    "attributes" : {
                        "POSITION" : 0,
                        "NORMAL" : 1,
                        "TEXCOORD_0" : 2
                    },
                    "indices" : 3,
                    "material" : 0
                }
            ]
        },
        {
            "name" : "codeBArre.007",
            "primitives" : [
                {
                    "attributes" : {
                        "POSITION" : 4,
                        "NORMAL" : 5,
                        "TEXCOORD_0" : 6
                    },
                    "indices" : 7,
                    "material" : 1
                }
            ]
        },
        {
            "name" : "sign4.004",
            "primitives" : [
                {
                    "attributes" : {
                        "POSITION" : 8,
                        "NORMAL" : 9,
                        "TEXCOORD_0" : 10
                    },
                    "indices" : 7,
                    "material" : 2
                }
            ]
        },
        {
            "name" : "Cube.021",
            "primitives" : [
                {
                    "attributes" : {
                        "POSITION" : 11,
                        "NORMAL" : 12,
                        "TEXCOORD_0" : 13,
                        "JOINTS_0" : 14,
                        "WEIGHTS_0" : 15
                    },
                    "indices" : 16,
                    "material" : 3
                },
                {
                    "attributes" : {
                        "POSITION" : 17,
                        "NORMAL" : 18,
                        "TEXCOORD_0" : 19,
                        "JOINTS_0" : 20,
                        "WEIGHTS_0" : 21
                    },
                    "indices" : 22,
                    "material" : 4
                }
            ]
        }
    ],
    "textures" : [
        {
            "source" : 0
        },
        {
            "source" : 1
        },
        {
            "source" : 2
        }
    ],
    "images" : [
        {
            "bufferView" : 4,
            "mimeType" : "image/png",
            "name" : "BlueStickerDiffuse"
        },
        {
            "bufferView" : 9,
            "mimeType" : "image/png",
            "name" : "barcode"
        },
        {
            "bufferView" : 13,
            "mimeType" : "image/png",
            "name" : "sign4"
        }
    ],
    "accessors" : [
        {
            "bufferView" : 0,
            "componentType" : 5126,
            "count" : 40,
            "max" : [
                0.12043257057666779,
                0.08025568723678589,
                0.05310279130935669
            ],
            "min" : [
                -0.11966298520565033,
                -0.07232528924942017,
                0.037789762020111084
            ],
            "type" : "VEC3"
        },
        {
            "bufferView" : 1,
            "componentType" : 5126,
            "count" : 40,
            "type" : "VEC3"
        },
        {
            "bufferView" : 2,
            "componentType" : 5126,
            "count" : 40,
            "type" : "VEC2"
        },
        {
            "bufferView" : 3,
            "componentType" : 5123,
            "count" : 60,
            "type" : "SCALAR"
        },
        {
            "bufferView" : 5,
            "componentType" : 5126,
            "count" : 4,
            "max" : [
                1.1111115217208862,
                2.384185791015625e-07,
                0.5001400709152222
            ],
            "min" : [
                -1.1111129522323608,
                -0.033731937408447266,
                -0.5000001788139343
            ],
            "type" : "VEC3"
        },
        {
            "bufferView" : 6,
            "componentType" : 5126,
            "count" : 4,
            "type" : "VEC3"
        },
        {
            "bufferView" : 7,
            "componentType" : 5126,
            "count" : 4,
            "type" : "VEC2"
        },
        {
            "bufferView" : 8,
            "componentType" : 5123,
            "count" : 6,
            "type" : "SCALAR"
        },
        {
            "bufferView" : 10,
            "componentType" : 5126,
            "count" : 4,
            "max" : [
                0.4985053241252899,
                -0.3162074089050293,
                0.49901527166366577
            ],
            "min" : [
                -0.5000001192092896,
                -0.32272791862487793,
                -0.5006654262542725
            ],
            "type" : "VEC3"
        },
        {
            "bufferView" : 11,
            "componentType" : 5126,
            "count" : 4,
            "type" : "VEC3"
        },
        {
            "bufferView" : 12,
            "componentType" : 5126,
            "count" : 4,
            "type" : "VEC2"
        },
        {
            "bufferView" : 14,
            "componentType" : 5126,
            "count" : 650,
            "max" : [
                0.19388419389724731,
                0.2766690254211426,
                0.37148118019104004
            ],
            "min" : [
                -0.1938842236995697,
                -0.2766690254211426,
                -0.37148118019104004
            ],
            "type" : "VEC3"
        },
        {
            "bufferView" : 15,
            "componentType" : 5126,
            "count" : 650,
            "type" : "VEC3"
        },
        {
            "bufferView" : 16,
            "componentType" : 5126,
            "count" : 650,
            "type" : "VEC2"
        },
        {
            "bufferView" : 17,
            "componentType" : 5123,
            "count" : 650,
            "type" : "VEC4"
        },
        {
            "bufferView" : 18,
            "componentType" : 5126,
            "count" : 650,
            "type" : "VEC4"
        },
        {
            "bufferView" : 19,
            "componentType" : 5123,
            "count" : 984,
            "type" : "SCALAR"
        },
        {
            "bufferView" : 20,
            "componentType" : 5126,
            "count" : 32,
            "max" : [
                0.03471529483795166,
                0.2766689956188202,
                0.37148118019104004
            ],
            "min" : [
                -0.034714579582214355,
                -0.0840066596865654,
                -0.37148118019104004
            ],
            "type" : "VEC3"
        },
        {
            "bufferView" : 21,
            "componentType" : 5126,
            "count" : 32,
            "type" : "VEC3"
        },
        {
            "bufferView" : 22,
            "componentType" : 5126,
            "count" : 32,
            "type" : "VEC2"
        },
        {
            "bufferView" : 23,
            "componentType" : 5123,
            "count" : 32,
            "type" : "VEC4"
        },
        {
            "bufferView" : 24,
            "componentType" : 5126,
            "count" : 32,
            "type" : "VEC4"
        },
        {
            "bufferView" : 25,
            "componentType" : 5123,
            "count" : 48,
            "type" : "SCALAR"
        }
    ],
    "bufferViews" : [
        {
            "buffer" : 0,
            "byteLength" : 480,
            "byteOffset" : 0
        },
        {
            "buffer" : 0,
            "byteLength" : 480,
            "byteOffset" : 480
        },
        {
            "buffer" : 0,
            "byteLength" : 320,
            "byteOffset" : 960
        },
        {
            "buffer" : 0,
            "byteLength" : 120,
            "byteOffset" : 1280
        },
        {
            "buffer" : 0,
            "byteLength" : 6328,
            "byteOffset" : 1400
        },
        {
            "buffer" : 0,
            "byteLength" : 48,
            "byteOffset" : 7728
        },
        {
            "buffer" : 0,
            "byteLength" : 48,
            "byteOffset" : 7776
        },
        {
            "buffer" : 0,
            "byteLength" : 32,
            "byteOffset" : 7824
        },
        {
            "buffer" : 0,
            "byteLength" : 12,
            "byteOffset" : 7856
        },
        {
            "buffer" : 0,
            "byteLength" : 1710,
            "byteOffset" : 7868
        },
        {
            "buffer" : 0,
            "byteLength" : 48,
            "byteOffset" : 9580
        },
        {
            "buffer" : 0,
            "byteLength" : 48,
            "byteOffset" : 9628
        },
        {
            "buffer" : 0,
            "byteLength" : 32,
            "byteOffset" : 9676
        },
        {
            "buffer" : 0,
            "byteLength" : 16393,
            "byteOffset" : 9708
        },
        {
            "buffer" : 0,
            "byteLength" : 7800,
            "byteOffset" : 26104
        },
        {
            "buffer" : 0,
            "byteLength" : 7800,
            "byteOffset" : 33904
        },
        {
            "buffer" : 0,
            "byteLength" : 5200,
            "byteOffset" : 41704
        },
        {
            "buffer" : 0,
            "byteLength" : 5200,
            "byteOffset" : 46904
        },
        {
            "buffer" : 0,
            "byteLength" : 10400,
            "byteOffset" : 52104
        },
        {
            "buffer" : 0,
            "byteLength" : 1968,
            "byteOffset" : 62504
        },
        {
            "buffer" : 0,
            "byteLength" : 384,
            "byteOffset" : 64472
        },
        {
            "buffer" : 0,
            "byteLength" : 384,
            "byteOffset" : 64856
        },
        {
            "buffer" : 0,
            "byteLength" : 256,
            "byteOffset" : 65240
        },
        {
            "buffer" : 0,
            "byteLength" : 256,
            "byteOffset" : 65496
        },
        {
            "buffer" : 0,
            "byteLength" : 512,
            "byteOffset" : 65752
        },
        {
            "buffer" : 0,
            "byteLength" : 96,
            "byteOffset" : 66264
        }
    ],
    "buffers" : [
        {
            "byteLength" : 66360,
            "uri" : "data:application/octet-stream;base64,"
        }
    ]
}
