{
    "asset" : {
        "copyright" : "TheFamousRat",
        "generator" : "Khronos glTF Blender I/O v1.1.46",
        "version" : "2.0"
    },
    "scene" : 0,
    "scenes" : [
        {
            "name" : "Scene",
            "nodes" : [
                2
            ]
        }
    ],
    "nodes" : [
        {
            "mesh" : 0,
            "name" : "BlueSticker.013",
            "rotation" : [
                -0.070658840239048,
                0.703567624092102,
                -0.0706588476896286,
                0.7035675644874573
            ],
            "scale" : [
                1.0084011554718018,
                1.0084011554718018,
                1.0084011554718018
            ],
            "translation" : [
                0.2600101828575134,
                0.05739352107048035,
                -0.04432343691587448
            ]
        },
        {
            "mesh" : 1,
            "name" : "sign4.014",
            "rotation" : [
                0.7071068286895752,
                0,
                0,
                0.7071068286895752
            ],
            "scale" : [
                0.17898587882518768,
                0.17898587882518768,
                0.17898587882518768
            ],
            "translation" : [
                -0.13305293023586273,
                -0.13470731675624847,
                0.32262295484542847
            ]
        },
        {
            "children" : [
                0,
                1
            ],
            "mesh" : 2,
            "name" : "Cardboard.029",
            "scale" : [
                0.7610931396484375,
                0.7610931396484375,
                0.7610931396484375
            ]
        }
    ],
    "materials" : [
        {
            "doubleSided" : true,
            "emissiveFactor" : [
                0,
                0,
                0
            ],
            "name" : "BlueSticker",
            "pbrMetallicRoughness" : {
                "baseColorTexture" : {
                    "index" : 0,
                    "texCoord" : 0
                },
                "metallicFactor" : 0,
                "roughnessFactor" : 0.5
            }
        },
        {
            "alphaMode" : "BLEND",
            "doubleSided" : true,
            "emissiveFactor" : [
                0,
                0,
                0
            ],
            "name" : "sign4",
            "pbrMetallicRoughness" : {
                "baseColorTexture" : {
                    "index" : 1,
                    "texCoord" : 0
                },
                "metallicFactor" : 0
            }
        },
        {
            "doubleSided" : true,
            "emissiveFactor" : [
                0,
                0,
                0
            ],
            "name" : "Cardboard",
            "pbrMetallicRoughness" : {
                "baseColorFactor" : [
                    0.43854397535324097,
                    0.22114567458629608,
                    0.07486508041620255,
                    1
                ],
                "metallicFactor" : 0,
                "roughnessFactor" : 0.800000011920929
            }
        },
        {
            "doubleSided" : true,
            "emissiveFactor" : [
                0,
                0,
                0
            ],
            "name" : "CardboardTape",
            "pbrMetallicRoughness" : {
                "baseColorFactor" : [
                    0.8000000715255737,
                    0.7577246427536011,
                    0.3579860031604767,
                    1
                ],
                "metallicFactor" : 0,
                "roughnessFactor" : 0.30000001192092896
            }
        }
    ],
    "meshes" : [
        {
            "name" : "Plane.009",
            "primitives" : [
                {
                    "attributes" : {
                        "POSITION" : 0,
                        "NORMAL" : 1,
                        "TEXCOORD_0" : 2
                    },
                    "indices" : 3,
                    "material" : 0
                }
            ]
        },
        {
            "name" : "sign4.010",
            "primitives" : [
                {
                    "attributes" : {
                        "POSITION" : 4,
                        "NORMAL" : 5,
                        "TEXCOORD_0" : 6
                    },
                    "indices" : 7,
                    "material" : 1
                }
            ]
        },
        {
            "name" : "Cube.015",
            "primitives" : [
                {
                    "attributes" : {
                        "POSITION" : 8,
                        "NORMAL" : 9,
                        "TEXCOORD_0" : 10,
                        "JOINTS_0" : 11,
                        "WEIGHTS_0" : 12
                    },
                    "indices" : 13,
                    "material" : 2
                },
                {
                    "attributes" : {
                        "POSITION" : 14,
                        "NORMAL" : 15,
                        "TEXCOORD_0" : 16,
                        "JOINTS_0" : 17,
                        "WEIGHTS_0" : 18
                    },
                    "indices" : 19,
                    "material" : 3
                }
            ]
        }
    ],
    "textures" : [
        {
            "source" : 0
        },
        {
            "source" : 1
        }
    ],
    "images" : [
        {
            "bufferView" : 4,
            "mimeType" : "image/png",
            "name" : "BlueStickerDiffuse"
        },
        {
            "bufferView" : 9,
            "mimeType" : "image/png",
            "name" : "sign4"
        }
    ],
    "accessors" : [
        {
            "bufferView" : 0,
            "componentType" : 5126,
            "count" : 40,
            "max" : [
                0.11999550461769104,
                0.07683078199625015,
                -0.005687236785888672
            ],
            "min" : [
                -0.12001116573810577,
                -0.07676038891077042,
                -0.007086843252182007
            ],
            "type" : "VEC3"
        },
        {
            "bufferView" : 1,
            "componentType" : 5126,
            "count" : 40,
            "type" : "VEC3"
        },
        {
            "bufferView" : 2,
            "componentType" : 5126,
            "count" : 40,
            "type" : "VEC2"
        },
        {
            "bufferView" : 3,
            "componentType" : 5123,
            "count" : 60,
            "type" : "SCALAR"
        },
        {
            "bufferView" : 5,
            "componentType" : 5126,
            "count" : 4,
            "max" : [
                0.5011197328567505,
                -0.39169251918792725,
                0.49906671047210693
            ],
            "min" : [
                -0.49999988079071045,
                -0.3957480192184448,
                -0.5031638741493225
            ],
            "type" : "VEC3"
        },
        {
            "bufferView" : 6,
            "componentType" : 5126,
            "count" : 4,
            "type" : "VEC3"
        },
        {
            "bufferView" : 7,
            "componentType" : 5126,
            "count" : 4,
            "type" : "VEC2"
        },
        {
            "bufferView" : 8,
            "componentType" : 5123,
            "count" : 6,
            "type" : "SCALAR"
        },
        {
            "bufferView" : 10,
            "componentType" : 5126,
            "count" : 702,
            "max" : [
                0.2519022524356842,
                0.2572580575942993,
                0.2533152401447296
            ],
            "min" : [
                -0.2519025206565857,
                -0.2500000298023224,
                -0.253315269947052
            ],
            "type" : "VEC3"
        },
        {
            "bufferView" : 11,
            "componentType" : 5126,
            "count" : 702,
            "type" : "VEC3"
        },
        {
            "bufferView" : 12,
            "componentType" : 5126,
            "count" : 702,
            "type" : "VEC2"
        },
        {
            "bufferView" : 13,
            "componentType" : 5123,
            "count" : 702,
            "type" : "VEC4"
        },
        {
            "bufferView" : 14,
            "componentType" : 5126,
            "count" : 702,
            "type" : "VEC4"
        },
        {
            "bufferView" : 15,
            "componentType" : 5123,
            "count" : 1068,
            "type" : "SCALAR"
        },
        {
            "bufferView" : 16,
            "componentType" : 5126,
            "count" : 144,
            "max" : [
                0.04561186209321022,
                0.25725799798965454,
                0.2533152401447296
            ],
            "min" : [
                -0.04561195895075798,
                0,
                -0.2533152103424072
            ],
            "type" : "VEC3"
        },
        {
            "bufferView" : 17,
            "componentType" : 5126,
            "count" : 144,
            "type" : "VEC3"
        },
        {
            "bufferView" : 18,
            "componentType" : 5126,
            "count" : 144,
            "type" : "VEC2"
        },
        {
            "bufferView" : 19,
            "componentType" : 5123,
            "count" : 144,
            "type" : "VEC4"
        },
        {
            "bufferView" : 20,
            "componentType" : 5126,
            "count" : 144,
            "type" : "VEC4"
        },
        {
            "bufferView" : 21,
            "componentType" : 5123,
            "count" : 216,
            "type" : "SCALAR"
        }
    ],
    "bufferViews" : [
        {
            "buffer" : 0,
            "byteLength" : 480,
            "byteOffset" : 0
        },
        {
            "buffer" : 0,
            "byteLength" : 480,
            "byteOffset" : 480
        },
        {
            "buffer" : 0,
            "byteLength" : 320,
            "byteOffset" : 960
        },
        {
            "buffer" : 0,
            "byteLength" : 120,
            "byteOffset" : 1280
        },
        {
            "buffer" : 0,
            "byteLength" : 6328,
            "byteOffset" : 1400
        },
        {
            "buffer" : 0,
            "byteLength" : 48,
            "byteOffset" : 7728
        },
        {
            "buffer" : 0,
            "byteLength" : 48,
            "byteOffset" : 7776
        },
        {
            "buffer" : 0,
            "byteLength" : 32,
            "byteOffset" : 7824
        },
        {
            "buffer" : 0,
            "byteLength" : 12,
            "byteOffset" : 7856
        },
        {
            "buffer" : 0,
            "byteLength" : 16393,
            "byteOffset" : 7868
        },
        {
            "buffer" : 0,
            "byteLength" : 8424,
            "byteOffset" : 24264
        },
        {
            "buffer" : 0,
            "byteLength" : 8424,
            "byteOffset" : 32688
        },
        {
            "buffer" : 0,
            "byteLength" : 5616,
            "byteOffset" : 41112
        },
        {
            "buffer" : 0,
            "byteLength" : 5616,
            "byteOffset" : 46728
        },
        {
            "buffer" : 0,
            "byteLength" : 11232,
            "byteOffset" : 52344
        },
        {
            "buffer" : 0,
            "byteLength" : 2136,
            "byteOffset" : 63576
        },
        {
            "buffer" : 0,
            "byteLength" : 1728,
            "byteOffset" : 65712
        },
        {
            "buffer" : 0,
            "byteLength" : 1728,
            "byteOffset" : 67440
        },
        {
            "buffer" : 0,
            "byteLength" : 1152,
            "byteOffset" : 69168
        },
        {
            "buffer" : 0,
            "byteLength" : 1152,
            "byteOffset" : 70320
        },
        {
            "buffer" : 0,
            "byteLength" : 2304,
            "byteOffset" : 71472
        },
        {
            "buffer" : 0,
            "byteLength" : 432,
            "byteOffset" : 73776
        }
    ],
    "buffers" : [
        {
            "byteLength" : 74208,
            "uri" : "data:application/octet-stream;base64,"
        }
    ]
}
