{
    "asset" : {
        "copyright" : "TheFamousRat",
        "generator" : "Khronos glTF Blender I/O v1.1.46",
        "version" : "2.0"
    },
    "scene" : 0,
    "scenes" : [
        {
            "name" : "Scene",
            "nodes" : [
                2
            ]
        }
    ],
    "nodes" : [
        {
            "mesh" : 0,
            "name" : "codeBArre.017",
            "rotation" : [
                0,
                0.7071068286895752,
                -0.7071068286895752,
                2.177493918509299e-08
            ],
            "scale" : [
                0.10329160839319229,
                0.10329160839319229,
                0.10329160839319229
            ],
            "translation" : [
                0.07103347033262253,
                -0.1545535773038864,
                -0.486826628446579
            ]
        },
        {
            "mesh" : 1,
            "name" : "sign2.017",
            "rotation" : [
                0.47558119893074036,
                0.4755811393260956,
                -0.5232805609703064,
                0.5232805609703064
            ],
            "scale" : [
                0.13450771570205688,
                0.13450771570205688,
                0.13450771570205688
            ],
            "translation" : [
                0.2656415104866028,
                -0.1363218128681183,
                0.1355743557214737
            ]
        },
        {
            "children" : [
                0,
                1
            ],
            "mesh" : 2,
            "name" : "Cardboard.028",
            "scale" : [
                0.7610931396484375,
                0.7610931396484375,
                0.7610931396484375
            ]
        }
    ],
    "materials" : [
        {
            "alphaMode" : "BLEND",
            "doubleSided" : true,
            "emissiveFactor" : [
                0,
                0,
                0
            ],
            "name" : "codeBArre",
            "pbrMetallicRoughness" : {
                "baseColorTexture" : {
                    "index" : 0,
                    "texCoord" : 0
                },
                "metallicFactor" : 0,
                "roughnessFactor" : 0.5
            }
        },
        {
            "alphaMode" : "BLEND",
            "doubleSided" : true,
            "emissiveFactor" : [
                0,
                0,
                0
            ],
            "name" : "sign2",
            "pbrMetallicRoughness" : {
                "baseColorTexture" : {
                    "index" : 1,
                    "texCoord" : 0
                },
                "metallicFactor" : 0,
                "roughnessFactor" : 0.5
            }
        },
        {
            "doubleSided" : true,
            "emissiveFactor" : [
                0,
                0,
                0
            ],
            "name" : "Cardboard",
            "pbrMetallicRoughness" : {
                "baseColorFactor" : [
                    0.43854397535324097,
                    0.22114567458629608,
                    0.07486508041620255,
                    1
                ],
                "metallicFactor" : 0,
                "roughnessFactor" : 0.800000011920929
            }
        },
        {
            "doubleSided" : true,
            "emissiveFactor" : [
                0,
                0,
                0
            ],
            "name" : "CardboardTape",
            "pbrMetallicRoughness" : {
                "baseColorFactor" : [
                    0.8000000715255737,
                    0.7577246427536011,
                    0.3579860031604767,
                    1
                ],
                "metallicFactor" : 0,
                "roughnessFactor" : 0.30000001192092896
            }
        }
    ],
    "meshes" : [
        {
            "name" : "codeBArre.011",
            "primitives" : [
                {
                    "attributes" : {
                        "POSITION" : 0,
                        "NORMAL" : 1,
                        "TEXCOORD_0" : 2
                    },
                    "indices" : 3,
                    "material" : 0
                }
            ]
        },
        {
            "name" : "sign2.011",
            "primitives" : [
                {
                    "attributes" : {
                        "POSITION" : 4,
                        "NORMAL" : 5,
                        "TEXCOORD_0" : 6
                    },
                    "indices" : 3,
                    "material" : 1
                }
            ]
        },
        {
            "name" : "Cube.013",
            "primitives" : [
                {
                    "attributes" : {
                        "POSITION" : 7,
                        "NORMAL" : 8,
                        "TEXCOORD_0" : 9,
                        "JOINTS_0" : 10,
                        "WEIGHTS_0" : 11
                    },
                    "indices" : 12,
                    "material" : 2
                },
                {
                    "attributes" : {
                        "POSITION" : 13,
                        "NORMAL" : 14,
                        "TEXCOORD_0" : 15,
                        "JOINTS_0" : 16,
                        "WEIGHTS_0" : 17
                    },
                    "indices" : 18,
                    "material" : 3
                }
            ]
        }
    ],
    "textures" : [
        {
            "source" : 0
        },
        {
            "source" : 1
        }
    ],
    "images" : [
        {
            "bufferView" : 4,
            "mimeType" : "image/png",
            "name" : "barcode"
        },
        {
            "bufferView" : 8,
            "mimeType" : "image/png",
            "name" : "sign2"
        }
    ],
    "accessors" : [
        {
            "bufferView" : 0,
            "componentType" : 5126,
            "count" : 4,
            "max" : [
                1.1111111640930176,
                -2.270725965499878,
                0.49470698833465576
            ],
            "min" : [
                -1.106501817703247,
                -2.2740166187286377,
                -0.5052939653396606
            ],
            "type" : "VEC3"
        },
        {
            "bufferView" : 1,
            "componentType" : 5126,
            "count" : 4,
            "type" : "VEC3"
        },
        {
            "bufferView" : 2,
            "componentType" : 5126,
            "count" : 4,
            "type" : "VEC2"
        },
        {
            "bufferView" : 3,
            "componentType" : 5123,
            "count" : 6,
            "type" : "SCALAR"
        },
        {
            "bufferView" : 5,
            "componentType" : 5126,
            "count" : 4,
            "max" : [
                0.4999709725379944,
                -0.09547734260559082,
                0.4996873140335083
            ],
            "min" : [
                -0.5000302791595459,
                -0.0989527702331543,
                -0.5003036856651306
            ],
            "type" : "VEC3"
        },
        {
            "bufferView" : 6,
            "componentType" : 5126,
            "count" : 4,
            "type" : "VEC3"
        },
        {
            "bufferView" : 7,
            "componentType" : 5126,
            "count" : 4,
            "type" : "VEC2"
        },
        {
            "bufferView" : 9,
            "componentType" : 5126,
            "count" : 650,
            "max" : [
                0.2517325282096863,
                0.47389161586761475,
                0.35385993123054504
            ],
            "min" : [
                -0.2517314553260803,
                -0.2500000298023224,
                -0.353859543800354
            ],
            "type" : "VEC3"
        },
        {
            "bufferView" : 10,
            "componentType" : 5126,
            "count" : 650,
            "type" : "VEC3"
        },
        {
            "bufferView" : 11,
            "componentType" : 5126,
            "count" : 650,
            "type" : "VEC2"
        },
        {
            "bufferView" : 12,
            "componentType" : 5123,
            "count" : 650,
            "type" : "VEC4"
        },
        {
            "bufferView" : 13,
            "componentType" : 5126,
            "count" : 650,
            "type" : "VEC4"
        },
        {
            "bufferView" : 14,
            "componentType" : 5123,
            "count" : 984,
            "type" : "SCALAR"
        },
        {
            "bufferView" : 15,
            "componentType" : 5126,
            "count" : 32,
            "max" : [
                0.04561189189553261,
                0.47389155626296997,
                0.35385987162590027
            ],
            "min" : [
                -0.045611876994371414,
                0,
                -0.3538595139980316
            ],
            "type" : "VEC3"
        },
        {
            "bufferView" : 16,
            "componentType" : 5126,
            "count" : 32,
            "type" : "VEC3"
        },
        {
            "bufferView" : 17,
            "componentType" : 5126,
            "count" : 32,
            "type" : "VEC2"
        },
        {
            "bufferView" : 18,
            "componentType" : 5123,
            "count" : 32,
            "type" : "VEC4"
        },
        {
            "bufferView" : 19,
            "componentType" : 5126,
            "count" : 32,
            "type" : "VEC4"
        },
        {
            "bufferView" : 20,
            "componentType" : 5123,
            "count" : 48,
            "type" : "SCALAR"
        }
    ],
    "bufferViews" : [
        {
            "buffer" : 0,
            "byteLength" : 48,
            "byteOffset" : 0
        },
        {
            "buffer" : 0,
            "byteLength" : 48,
            "byteOffset" : 48
        },
        {
            "buffer" : 0,
            "byteLength" : 32,
            "byteOffset" : 96
        },
        {
            "buffer" : 0,
            "byteLength" : 12,
            "byteOffset" : 128
        },
        {
            "buffer" : 0,
            "byteLength" : 1710,
            "byteOffset" : 140
        },
        {
            "buffer" : 0,
            "byteLength" : 48,
            "byteOffset" : 1852
        },
        {
            "buffer" : 0,
            "byteLength" : 48,
            "byteOffset" : 1900
        },
        {
            "buffer" : 0,
            "byteLength" : 32,
            "byteOffset" : 1948
        },
        {
            "buffer" : 0,
            "byteLength" : 10871,
            "byteOffset" : 1980
        },
        {
            "buffer" : 0,
            "byteLength" : 7800,
            "byteOffset" : 12852
        },
        {
            "buffer" : 0,
            "byteLength" : 7800,
            "byteOffset" : 20652
        },
        {
            "buffer" : 0,
            "byteLength" : 5200,
            "byteOffset" : 28452
        },
        {
            "buffer" : 0,
            "byteLength" : 5200,
            "byteOffset" : 33652
        },
        {
            "buffer" : 0,
            "byteLength" : 10400,
            "byteOffset" : 38852
        },
        {
            "buffer" : 0,
            "byteLength" : 1968,
            "byteOffset" : 49252
        },
        {
            "buffer" : 0,
            "byteLength" : 384,
            "byteOffset" : 51220
        },
        {
            "buffer" : 0,
            "byteLength" : 384,
            "byteOffset" : 51604
        },
        {
            "buffer" : 0,
            "byteLength" : 256,
            "byteOffset" : 51988
        },
        {
            "buffer" : 0,
            "byteLength" : 256,
            "byteOffset" : 52244
        },
        {
            "buffer" : 0,
            "byteLength" : 512,
            "byteOffset" : 52500
        },
        {
            "buffer" : 0,
            "byteLength" : 96,
            "byteOffset" : 53012
        }
    ],
    "buffers" : [
        {
            "byteLength" : 53108,
            "uri" : "data:application/octet-stream;base64,"
        }
    ]
}
