{
    "asset" : {
        "copyright" : "TheFamousRat",
        "generator" : "Khronos glTF Blender I/O v1.1.46",
        "version" : "2.0"
    },
    "scene" : 0,
    "scenes" : [
        {
            "name" : "Scene",
            "nodes" : [
                1
            ]
        }
    ],
    "nodes" : [
        {
            "mesh" : 0,
            "name" : "codeBArre.016",
            "rotation" : [
                0.6525192856788635,
                0.272430956363678,
                -0.6525192260742188,
                0.27243107557296753
            ],
            "scale" : [
                0.08211580663919449,
                0.08211579918861389,
                0.08211579918861389
            ],
            "translation" : [
                0.29963043332099915,
                0.5462737083435059,
                -0.04672526568174362
            ]
        },
        {
            "children" : [
                0
            ],
            "mesh" : 1,
            "name" : "Cardboard.025",
            "scale" : [
                0.7610931396484375,
                0.7610931396484375,
                0.7610931396484375
            ]
        }
    ],
    "materials" : [
        {
            "alphaMode" : "BLEND",
            "doubleSided" : true,
            "emissiveFactor" : [
                0,
                0,
                0
            ],
            "name" : "codeBArre",
            "pbrMetallicRoughness" : {
                "baseColorTexture" : {
                    "index" : 0,
                    "texCoord" : 0
                },
                "metallicFactor" : 0,
                "roughnessFactor" : 0.5
            }
        },
        {
            "doubleSided" : true,
            "emissiveFactor" : [
                0,
                0,
                0
            ],
            "name" : "Cardboard",
            "pbrMetallicRoughness" : {
                "baseColorFactor" : [
                    0.43854397535324097,
                    0.22114567458629608,
                    0.07486508041620255,
                    1
                ],
                "metallicFactor" : 0,
                "roughnessFactor" : 0.800000011920929
            }
        },
        {
            "doubleSided" : true,
            "emissiveFactor" : [
                0,
                0,
                0
            ],
            "name" : "CardboardTape",
            "pbrMetallicRoughness" : {
                "baseColorFactor" : [
                    0.8000000715255737,
                    0.7577246427536011,
                    0.3579860031604767,
                    1
                ],
                "metallicFactor" : 0,
                "roughnessFactor" : 0.30000001192092896
            }
        }
    ],
    "meshes" : [
        {
            "name" : "codeBArre.010",
            "primitives" : [
                {
                    "attributes" : {
                        "POSITION" : 0,
                        "NORMAL" : 1,
                        "TEXCOORD_0" : 2
                    },
                    "indices" : 3,
                    "material" : 0
                }
            ]
        },
        {
            "name" : "Cube.010",
            "primitives" : [
                {
                    "attributes" : {
                        "POSITION" : 4,
                        "NORMAL" : 5,
                        "TEXCOORD_0" : 6,
                        "JOINTS_0" : 7,
                        "WEIGHTS_0" : 8
                    },
                    "indices" : 9,
                    "material" : 1
                },
                {
                    "attributes" : {
                        "POSITION" : 10,
                        "NORMAL" : 11,
                        "TEXCOORD_0" : 12,
                        "JOINTS_0" : 13,
                        "WEIGHTS_0" : 14
                    },
                    "indices" : 15,
                    "material" : 2
                }
            ]
        }
    ],
    "textures" : [
        {
            "source" : 0
        }
    ],
    "images" : [
        {
            "bufferView" : 4,
            "mimeType" : "image/png",
            "name" : "barcode"
        }
    ],
    "accessors" : [
        {
            "bufferView" : 0,
            "componentType" : 5126,
            "count" : 4,
            "max" : [
                1.1111111640930176,
                -1.032331943511963,
                0.49960803985595703
            ],
            "min" : [
                -1.1111111640930176,
                -1.0327122211456299,
                -0.5003924369812012
            ],
            "type" : "VEC3"
        },
        {
            "bufferView" : 1,
            "componentType" : 5126,
            "count" : 4,
            "type" : "VEC3"
        },
        {
            "bufferView" : 2,
            "componentType" : 5126,
            "count" : 4,
            "type" : "VEC2"
        },
        {
            "bufferView" : 3,
            "componentType" : 5123,
            "count" : 6,
            "type" : "SCALAR"
        },
        {
            "bufferView" : 5,
            "componentType" : 5126,
            "count" : 870,
            "max" : [
                0.278624027967453,
                0.723219633102417,
                0.30573058128356934
            ],
            "min" : [
                -0.278624027967453,
                -0.723219633102417,
                -0.30573058128356934
            ],
            "type" : "VEC3"
        },
        {
            "bufferView" : 6,
            "componentType" : 5126,
            "count" : 870,
            "type" : "VEC3"
        },
        {
            "bufferView" : 7,
            "componentType" : 5126,
            "count" : 870,
            "type" : "VEC2"
        },
        {
            "bufferView" : 8,
            "componentType" : 5123,
            "count" : 870,
            "type" : "VEC4"
        },
        {
            "bufferView" : 9,
            "componentType" : 5126,
            "count" : 870,
            "type" : "VEC4"
        },
        {
            "bufferView" : 10,
            "componentType" : 5123,
            "count" : 1296,
            "type" : "SCALAR"
        },
        {
            "bufferView" : 11,
            "componentType" : 5126,
            "count" : 48,
            "max" : [
                0.03192830830812454,
                0.7232193946838379,
                0.30573052167892456
            ],
            "min" : [
                -0.03192830830812454,
                0.31512022018432617,
                -0.30573058128356934
            ],
            "type" : "VEC3"
        },
        {
            "bufferView" : 12,
            "componentType" : 5126,
            "count" : 48,
            "type" : "VEC3"
        },
        {
            "bufferView" : 13,
            "componentType" : 5126,
            "count" : 48,
            "type" : "VEC2"
        },
        {
            "bufferView" : 14,
            "componentType" : 5123,
            "count" : 48,
            "type" : "VEC4"
        },
        {
            "bufferView" : 15,
            "componentType" : 5126,
            "count" : 48,
            "type" : "VEC4"
        },
        {
            "bufferView" : 16,
            "componentType" : 5123,
            "count" : 72,
            "type" : "SCALAR"
        }
    ],
    "bufferViews" : [
        {
            "buffer" : 0,
            "byteLength" : 48,
            "byteOffset" : 0
        },
        {
            "buffer" : 0,
            "byteLength" : 48,
            "byteOffset" : 48
        },
        {
            "buffer" : 0,
            "byteLength" : 32,
            "byteOffset" : 96
        },
        {
            "buffer" : 0,
            "byteLength" : 12,
            "byteOffset" : 128
        },
        {
            "buffer" : 0,
            "byteLength" : 1710,
            "byteOffset" : 140
        },
        {
            "buffer" : 0,
            "byteLength" : 10440,
            "byteOffset" : 1852
        },
        {
            "buffer" : 0,
            "byteLength" : 10440,
            "byteOffset" : 12292
        },
        {
            "buffer" : 0,
            "byteLength" : 6960,
            "byteOffset" : 22732
        },
        {
            "buffer" : 0,
            "byteLength" : 6960,
            "byteOffset" : 29692
        },
        {
            "buffer" : 0,
            "byteLength" : 13920,
            "byteOffset" : 36652
        },
        {
            "buffer" : 0,
            "byteLength" : 2592,
            "byteOffset" : 50572
        },
        {
            "buffer" : 0,
            "byteLength" : 576,
            "byteOffset" : 53164
        },
        {
            "buffer" : 0,
            "byteLength" : 576,
            "byteOffset" : 53740
        },
        {
            "buffer" : 0,
            "byteLength" : 384,
            "byteOffset" : 54316
        },
        {
            "buffer" : 0,
            "byteLength" : 384,
            "byteOffset" : 54700
        },
        {
            "buffer" : 0,
            "byteLength" : 768,
            "byteOffset" : 55084
        },
        {
            "buffer" : 0,
            "byteLength" : 144,
            "byteOffset" : 55852
        }
    ],
    "buffers" : [
        {
            "byteLength" : 55996,
            "uri" : "data:application/octet-stream;base64,"
        }
    ]
}
