{
    "asset" : {
        "copyright" : "TheFamousRat",
        "generator" : "Khronos glTF Blender I/O v1.1.46",
        "version" : "2.0"
    },
    "scene" : 0,
    "scenes" : [
        {
            "name" : "Scene",
            "nodes" : [
                0
            ]
        }
    ],
    "nodes" : [
        {
            "mesh" : 0,
            "name" : "Palette.001",
            "scale" : [
                0.8619707822799683,
                1,
                0.7724238634109497
            ]
        }
    ],
    "materials" : [
        {
            "doubleSided" : true,
            "emissiveFactor" : [
                0,
                0,
                0
            ],
            "name" : "PaletteWood",
            "pbrMetallicRoughness" : {
                "baseColorFactor" : [
                    0.5814507007598877,
                    0.31974565982818604,
                    0.04802371934056282,
                    1
                ],
                "metallicFactor" : 0,
                "roughnessFactor" : 0.800000011920929
            }
        },
        {
            "doubleSided" : true,
            "emissiveFactor" : [
                0,
                0,
                0
            ],
            "name" : "BlackBolt",
            "pbrMetallicRoughness" : {
                "baseColorFactor" : [
                    0.052213285118341446,
                    0.052213285118341446,
                    0.052213285118341446,
                    1
                ],
                "metallicFactor" : 1,
                "roughnessFactor" : 0.5
            }
        }
    ],
    "meshes" : [
        {
            "name" : "Cube.014",
            "primitives" : [
                {
                    "attributes" : {
                        "POSITION" : 0,
                        "NORMAL" : 1,
                        "TEXCOORD_0" : 2
                    },
                    "indices" : 3,
                    "material" : 0
                },
                {
                    "attributes" : {
                        "POSITION" : 4,
                        "NORMAL" : 5,
                        "TEXCOORD_0" : 6
                    },
                    "indices" : 7,
                    "material" : 1
                }
            ]
        }
    ],
    "accessors" : [
        {
            "bufferView" : 0,
            "componentType" : 5126,
            "count" : 480,
            "max" : [
                0.5800660848617554,
                0.10222864151000977,
                0.6473129987716675
            ],
            "min" : [
                -0.5800660848617554,
                -0.10470075160264969,
                -0.6473129987716675
            ],
            "type" : "VEC3"
        },
        {
            "bufferView" : 1,
            "componentType" : 5126,
            "count" : 480,
            "type" : "VEC3"
        },
        {
            "bufferView" : 2,
            "componentType" : 5126,
            "count" : 480,
            "type" : "VEC2"
        },
        {
            "bufferView" : 3,
            "componentType" : 5123,
            "count" : 720,
            "type" : "SCALAR"
        },
        {
            "bufferView" : 4,
            "componentType" : 5126,
            "count" : 400,
            "max" : [
                0.540774405002594,
                0.10470075160264969,
                0.6247068643569946
            ],
            "min" : [
                -0.540774405002594,
                0.10144761949777603,
                -0.6296960115432739
            ],
            "type" : "VEC3"
        },
        {
            "bufferView" : 5,
            "componentType" : 5126,
            "count" : 400,
            "type" : "VEC3"
        },
        {
            "bufferView" : 6,
            "componentType" : 5126,
            "count" : 400,
            "type" : "VEC2"
        },
        {
            "bufferView" : 7,
            "componentType" : 5123,
            "count" : 600,
            "type" : "SCALAR"
        }
    ],
    "bufferViews" : [
        {
            "buffer" : 0,
            "byteLength" : 5760,
            "byteOffset" : 0
        },
        {
            "buffer" : 0,
            "byteLength" : 5760,
            "byteOffset" : 5760
        },
        {
            "buffer" : 0,
            "byteLength" : 3840,
            "byteOffset" : 11520
        },
        {
            "buffer" : 0,
            "byteLength" : 1440,
            "byteOffset" : 15360
        },
        {
            "buffer" : 0,
            "byteLength" : 4800,
            "byteOffset" : 16800
        },
        {
            "buffer" : 0,
            "byteLength" : 4800,
            "byteOffset" : 21600
        },
        {
            "buffer" : 0,
            "byteLength" : 3200,
            "byteOffset" : 26400
        },
        {
            "buffer" : 0,
            "byteLength" : 1200,
            "byteOffset" : 29600
        }
    ],
    "buffers" : [
        {
            "byteLength" : 30800,
            "uri" : "data:application/octet-stream;base64,"
        }
    ]
}
